<svg id="Capa_1" data-name="Capa 1" xmlns="http://www.w3.org/2000/svg" viewBox="0 0 1389.82 400.3"><defs><style>.cls-1{fill:#fff;}</style></defs><title>Asociación Uruguaya de Speedcubing Negativo</title><path class="cls-1" d="M606.4,230.9a6,6,0,0,0-.2-1.2l-24.5-64.3a4.34,4.34,0,0,0-1.2-1.7,3.61,3.61,0,0,0-2.2-.7h-6.8a2.92,2.92,0,0,0-2.2.7,4.34,4.34,0,0,0-1.2,1.7l-24.6,64.3a4.49,4.49,0,0,0-.1,1.1,2.4,2.4,0,0,0,2.3,2.3h5.1a2.58,2.58,0,0,0,2-.7,2.8,2.8,0,0,0,.8-1.2l5.4-13.9h32l5.4,13.9a3.55,3.55,0,0,0,.8,1.2,2.74,2.74,0,0,0,1.9.7h5.1a2.13,2.13,0,0,0,1.6-.7A1.83,1.83,0,0,0,606.4,230.9Zm-18.5-22.6H561.8l13-34.3Z" transform="translate(-121.1 -66.9)"/><path class="cls-1" d="M647.8,206.8a34,34,0,0,0-10.4-3.5,64.38,64.38,0,0,1-9.1-2.6c-2-.8-3.4-1.6-4.1-2.6a5.09,5.09,0,0,1-1-3.2,6.54,6.54,0,0,1,2.4-5.1c1.6-1.3,4.1-2,7.3-2a16.41,16.41,0,0,1,5.5.8,8.93,8.93,0,0,1,3.4,2.1,13.85,13.85,0,0,1,2.3,2.6,5.49,5.49,0,0,0,.9.7,2.5,2.5,0,0,0,1.3.3h4.2a2.4,2.4,0,0,0,2.5-2.5,8.26,8.26,0,0,0-1.3-3.3,16,16,0,0,0-3.6-3.9,22,22,0,0,0-6.1-3.3,26.51,26.51,0,0,0-8.9-1.3,22.65,22.65,0,0,0-10.7,2.2,17.33,17.33,0,0,0-6.5,5.7,12.93,12.93,0,0,0-2.2,7.2,13.84,13.84,0,0,0,1.5,6.5,12.91,12.91,0,0,0,5.1,5,35.25,35.25,0,0,0,9.5,3.5c3.9.9,7.1,1.7,9.4,2.5a13.25,13.25,0,0,1,4.7,2.6,5.62,5.62,0,0,1,1.3,3.8,6,6,0,0,1-3.2,5.5,18.59,18.59,0,0,1-13.9,1,12.66,12.66,0,0,1-3.8-2.2,25.73,25.73,0,0,1-2.9-2.8,3.52,3.52,0,0,0-1-.9,2.92,2.92,0,0,0-.9-.2H615a2.72,2.72,0,0,0-1.7.6,2,2,0,0,0-.8,1.9,8.35,8.35,0,0,0,1.4,3.3,15.56,15.56,0,0,0,3.8,4,23.3,23.3,0,0,0,6.5,3.4,30.38,30.38,0,0,0,9.6,1.4,29.65,29.65,0,0,0,11.8-2.1,17,17,0,0,0,7.3-5.6,13.56,13.56,0,0,0,2.4-7.8,13.94,13.94,0,0,0-1.6-6.8A22.64,22.64,0,0,0,647.8,206.8Z" transform="translate(-121.1 -66.9)"/><path class="cls-1" d="M700,231.2a19.63,19.63,0,0,0,7.8-8.1,27.8,27.8,0,0,0,3-11.8c.1-1.1.1-2.6.1-4.3s0-3.2-.1-4.2a26.12,26.12,0,0,0-3.1-11.8,19.63,19.63,0,0,0-7.9-8,28.82,28.82,0,0,0-25.2,0,19.63,19.63,0,0,0-7.9,8,27.85,27.85,0,0,0-3.1,11.8c-.1,1-.1,2.5-.1,4.2s0,3.2.1,4.3a28.19,28.19,0,0,0,3,11.8,19.63,19.63,0,0,0,7.8,8.1,25.92,25.92,0,0,0,12.7,2.9C692.1,234.1,696.6,233.2,700,231.2Zm-12.7-43a12.57,12.57,0,0,1,9.6,3.8c2.4,2.6,3.7,6.4,3.9,11.3.1,1,.1,2.3.1,3.8s0,2.8-.1,3.8c-.2,4.9-1.5,8.8-3.9,11.3s-5.6,3.8-9.6,3.8a13,13,0,0,1-9.7-3.8c-2.4-2.6-3.7-6.4-3.9-11.3-.1-1-.1-2.2-.1-3.8s0-2.8.1-3.8c.1-4.9,1.4-8.7,3.9-11.3A13,13,0,0,1,687.3,188.2Z" transform="translate(-121.1 -66.9)"/><path class="cls-1" d="M758.5,230.3a21.21,21.21,0,0,0,4.4-4,15.16,15.16,0,0,0,3.5-8.8,2,2,0,0,0-.7-1.8,2.49,2.49,0,0,0-1.9-.7H759a2.35,2.35,0,0,0-1.7.6,6.23,6.23,0,0,0-1.1,1.7c-1.2,3.2-2.8,5.4-4.8,6.7a13.48,13.48,0,0,1-7.5,1.9,12.9,12.9,0,0,1-9.5-3.6c-2.4-2.4-3.8-6.3-3.9-11.7-.1-2.2-.1-4.6,0-6.9.2-5.3,1.5-9.3,3.9-11.6a12.9,12.9,0,0,1,9.5-3.6,14.37,14.37,0,0,1,7.5,1.9c2,1.3,3.6,3.6,4.8,6.7a3.44,3.44,0,0,0,1.1,1.6,2.65,2.65,0,0,0,1.7.5h4.8a2.81,2.81,0,0,0,1.9-.7,2.09,2.09,0,0,0,.7-1.8,16.18,16.18,0,0,0-1.5-5.6,17.21,17.21,0,0,0-4.1-5.4,19.47,19.47,0,0,0-6.9-4.1,27.25,27.25,0,0,0-10-1.6,25.11,25.11,0,0,0-12.3,2.8,19.63,19.63,0,0,0-8,7.9,26.41,26.41,0,0,0-3,12.4c-.1,1-.1,2.3-.1,4s0,3,.1,4a26.72,26.72,0,0,0,3,12.4,19.63,19.63,0,0,0,8,7.9,26.27,26.27,0,0,0,12.3,2.8,29.79,29.79,0,0,0,8.3-1.1A20.34,20.34,0,0,0,758.5,230.3Z" transform="translate(-121.1 -66.9)"/><path class="cls-1" d="M780.2,181a2.4,2.4,0,0,0-2.5,2.5v47.1a2.4,2.4,0,0,0,2.5,2.5H785a2.4,2.4,0,0,0,2.5-2.5V183.5A2.4,2.4,0,0,0,785,181Z" transform="translate(-121.1 -66.9)"/><path class="cls-1" d="M779.4,171.9h6.3a2.64,2.64,0,0,0,1.9-.7,2.5,2.5,0,0,0,.8-1.8V164a2.73,2.73,0,0,0-.8-1.9,2.56,2.56,0,0,0-1.9-.8h-6.3a2.57,2.57,0,0,0-2.5,2.7v5.4a2.41,2.41,0,0,0,.7,1.8A2.87,2.87,0,0,0,779.4,171.9Z" transform="translate(-121.1 -66.9)"/><path class="cls-1" d="M816.4,234.2a23.86,23.86,0,0,0,8.1-1.2,17.79,17.79,0,0,0,5.5-2.9,22.3,22.3,0,0,0,3.1-3v3.5a2.41,2.41,0,0,0,.7,1.8,2.35,2.35,0,0,0,1.9.7h4.6a2.4,2.4,0,0,0,2.5-2.5V198.4a21.87,21.87,0,0,0-1.1-6.7,17.92,17.92,0,0,0-3.4-6,17,17,0,0,0-6.5-4.2,29.29,29.29,0,0,0-10.1-1.6,25,25,0,0,0-9.2,1.5,21.55,21.55,0,0,0-6.2,3.6,17.13,17.13,0,0,0-3.6,4.3,8.61,8.61,0,0,0-1.2,3.8,2.52,2.52,0,0,0,.6,1.7,2.14,2.14,0,0,0,1.8.7h4.5a2.37,2.37,0,0,0,2.3-1.6,9.64,9.64,0,0,1,3.8-4.5,12.54,12.54,0,0,1,7-1.7c4,0,6.9.9,8.7,2.6s2.7,4.2,2.7,7.3v2.7l-14.6,2.1c-6,.9-10.9,2.7-14.6,5.4a13.14,13.14,0,0,0-5.7,11.1,13.42,13.42,0,0,0,2.5,7.8,17.49,17.49,0,0,0,6.6,5.4A21.12,21.12,0,0,0,816.4,234.2Zm16.5-26.6v2.5a19.16,19.16,0,0,1-1.9,9.1,12.11,12.11,0,0,1-5.2,5.3,16.33,16.33,0,0,1-7.3,1.7,14.4,14.4,0,0,1-5.1-.9,10.49,10.49,0,0,1-4.1-2.7,6.86,6.86,0,0,1-1.6-4.5c0-2.3,1.2-4.2,3.5-5.7s5.9-2.6,10.5-3.3Z" transform="translate(-121.1 -66.9)"/><path class="cls-1" d="M877.7,234.2a29.79,29.79,0,0,0,8.3-1.1,20.83,20.83,0,0,0,6.2-2.8,21.21,21.21,0,0,0,4.4-4,15.16,15.16,0,0,0,3.5-8.8,2,2,0,0,0-.7-1.8,2.49,2.49,0,0,0-1.9-.7h-4.8a2.35,2.35,0,0,0-1.7.6,6.23,6.23,0,0,0-1.1,1.7c-1.2,3.2-2.8,5.4-4.8,6.7a13.48,13.48,0,0,1-7.5,1.9,12.9,12.9,0,0,1-9.5-3.6c-2.4-2.4-3.8-6.3-3.9-11.7-.1-2.2-.1-4.6,0-6.9.2-5.3,1.5-9.3,3.9-11.6a12.9,12.9,0,0,1,9.5-3.6,14.37,14.37,0,0,1,7.5,1.9c2,1.3,3.6,3.6,4.8,6.7a3.44,3.44,0,0,0,1.1,1.6,2.65,2.65,0,0,0,1.7.5h4.8a2.81,2.81,0,0,0,1.9-.7,2.09,2.09,0,0,0,.7-1.8,16.18,16.18,0,0,0-1.5-5.6,17.21,17.21,0,0,0-4.1-5.4,19.47,19.47,0,0,0-6.9-4.1,27.25,27.25,0,0,0-10-1.6,25.11,25.11,0,0,0-12.3,2.8,19.63,19.63,0,0,0-8,7.9,26.41,26.41,0,0,0-3,12.4c-.1,1-.1,2.3-.1,4s0,3,.1,4a26.72,26.72,0,0,0,3,12.4,19.63,19.63,0,0,0,8,7.9A26.69,26.69,0,0,0,877.7,234.2Z" transform="translate(-121.1 -66.9)"/><path class="cls-1" d="M919.4,171.9a2.64,2.64,0,0,0,1.9-.7,2.5,2.5,0,0,0,.8-1.8V164a2.73,2.73,0,0,0-.8-1.9,2.56,2.56,0,0,0-1.9-.8h-6.3a2.57,2.57,0,0,0-2.5,2.7v5.4a2.4,2.4,0,0,0,2.5,2.5Z" transform="translate(-121.1 -66.9)"/><path class="cls-1" d="M920.5,232.4a2.41,2.41,0,0,0,.7-1.8V183.5a2.4,2.4,0,0,0-2.5-2.5h-4.8a2.4,2.4,0,0,0-2.5,2.5v47.1a2.4,2.4,0,0,0,2.5,2.5h4.8A2.09,2.09,0,0,0,920.5,232.4Z" transform="translate(-121.1 -66.9)"/><path class="cls-1" d="M954.2,174.1h3.4a9.21,9.21,0,0,0,1.9-.2,5.28,5.28,0,0,0,1.6-.9l11.5-9.5a1.82,1.82,0,0,0,.6-1.4c0-1.5-.7-2.2-2.1-2.2h-6.8a4.32,4.32,0,0,0-2.2.4,10.06,10.06,0,0,0-1.7,1.5l-7.4,8.9a2,2,0,0,0-.6,1.5A1.66,1.66,0,0,0,954.2,174.1Z" transform="translate(-121.1 -66.9)"/><path class="cls-1" d="M980.6,211.4c.1-1.2.1-2.6.1-4.3s0-3.1-.1-4.2a26.12,26.12,0,0,0-3.1-11.8,19.63,19.63,0,0,0-7.9-8,28.82,28.82,0,0,0-25.2,0,19.63,19.63,0,0,0-7.9,8,27.85,27.85,0,0,0-3.1,11.8c-.1,1.1-.1,2.4-.1,4.2s0,3.2.1,4.3a28.19,28.19,0,0,0,3,11.8,19.63,19.63,0,0,0,7.8,8.1,29.26,29.26,0,0,0,25.4,0,19.63,19.63,0,0,0,7.8-8.1A25.61,25.61,0,0,0,980.6,211.4ZM957,226a13,13,0,0,1-9.7-3.8c-2.4-2.6-3.7-6.4-3.9-11.3-.1-1-.1-2.2-.1-3.8s0-2.8.1-3.8c.1-4.9,1.4-8.7,3.9-11.3s5.7-3.8,9.7-3.8a12.57,12.57,0,0,1,9.6,3.8c2.4,2.6,3.7,6.4,3.9,11.3.1,1,.1,2.2.1,3.8s0,2.8-.1,3.8c-.2,4.9-1.5,8.8-3.9,11.3A12.57,12.57,0,0,1,957,226Z" transform="translate(-121.1 -66.9)"/><path class="cls-1" d="M1038.4,232.4a2.41,2.41,0,0,0,.7-1.8v-28a27.64,27.64,0,0,0-2.4-11.8,19.21,19.21,0,0,0-6.9-8,20.6,20.6,0,0,0-11.1-2.9c-4.1,0-7.6.7-10.2,2.2a20,20,0,0,0-6.1,5v-3.7a2.4,2.4,0,0,0-2.5-2.5h-4.7a2.4,2.4,0,0,0-2.5,2.5v47.1a2.4,2.4,0,0,0,2.5,2.5h5a2.4,2.4,0,0,0,2.5-2.5V203c0-4.5,1.2-8.1,3.7-10.7s5.7-3.8,9.7-3.8c4.3,0,7.5,1.3,9.7,3.8s3.3,6.2,3.3,10.7v27.5a2.4,2.4,0,0,0,2.5,2.5h5A1.79,1.79,0,0,0,1038.4,232.4Z" transform="translate(-121.1 -66.9)"/><path class="cls-1" d="M1119.4,231.1a21.19,21.19,0,0,0,9.3-9.2q3.3-6.15,3.3-15.9V165.7a2.49,2.49,0,0,0-.7-1.9,2.41,2.41,0,0,0-1.8-.7h-5.2a2.41,2.41,0,0,0-1.8.7,2.49,2.49,0,0,0-.7,1.9v40.5c0,6.4-1.5,11.2-4.5,14.2s-7.1,4.6-12.3,4.6-9.4-1.5-12.3-4.6-4.5-7.8-4.5-14.2V165.7a2.42,2.42,0,0,0-2.6-2.6h-5.1a2.49,2.49,0,0,0-1.9.7,2.94,2.94,0,0,0-.7,1.9V206c0,6.4,1.1,11.8,3.3,15.9a21.19,21.19,0,0,0,9.3,9.2,32.34,32.34,0,0,0,14.5,3A30.9,30.9,0,0,0,1119.4,231.1Z" transform="translate(-121.1 -66.9)"/><path class="cls-1" d="M1174,181h-3.9a20.6,20.6,0,0,0-8.6,1.7,12.79,12.79,0,0,0-5.1,4.4v-3.5a2.73,2.73,0,0,0-.8-1.9,2.56,2.56,0,0,0-1.9-.8h-4.6a2.57,2.57,0,0,0-2.5,2.7v47a2.4,2.4,0,0,0,2.5,2.5h4.9a2.64,2.64,0,0,0,1.9-.7,2.5,2.5,0,0,0,.8-1.8V201.4c0-3.5,1-6.3,3-8.3a11.32,11.32,0,0,1,8.3-3.1h6a2.41,2.41,0,0,0,1.8-.7,2.14,2.14,0,0,0,.7-1.8v-4.1a2.41,2.41,0,0,0-.7-1.8A3.22,3.22,0,0,0,1174,181Z" transform="translate(-121.1 -66.9)"/><path class="cls-1" d="M1227.6,181h-5a2.4,2.4,0,0,0-2.5,2.5V211c0,4.5-1.2,8.1-3.7,10.7s-5.7,3.8-9.7,3.8c-8.5,0-12.7-4.8-12.7-14.5V183.5a2.4,2.4,0,0,0-2.5-2.5h-5a2.4,2.4,0,0,0-2.5,2.5v28a28.73,28.73,0,0,0,2.3,11.7,17.77,17.77,0,0,0,6.8,8,19.9,19.9,0,0,0,10.9,2.9,21.48,21.48,0,0,0,10.2-2.1,20,20,0,0,0,6.1-5.1v3.7a2.4,2.4,0,0,0,2.5,2.5h4.7a2.41,2.41,0,0,0,1.8-.7,2.87,2.87,0,0,0,.7-1.8V183.5a2.39,2.39,0,0,0-2.4-2.5Z" transform="translate(-121.1 -66.9)"/><path class="cls-1" d="M1286.6,181H1282a2.57,2.57,0,0,0-2.5,2.7v3.5a21.07,21.07,0,0,0-6-5,20,20,0,0,0-10-2.2,21.61,21.61,0,0,0-9.6,2,17.49,17.49,0,0,0-6.6,5.4,24.09,24.09,0,0,0-3.8,7.7,37.61,37.61,0,0,0-1.4,9,50.46,50.46,0,0,0,0,5.5,37.61,37.61,0,0,0,1.4,9,23.11,23.11,0,0,0,3.8,7.7,18.23,18.23,0,0,0,6.6,5.3,21.92,21.92,0,0,0,9.6,2,20.6,20.6,0,0,0,9.8-2.1,19.5,19.5,0,0,0,5.9-4.6v6c0,3.6-.5,6.4-1.6,8.4a9.38,9.38,0,0,1-4.7,4.3,21.9,21.9,0,0,1-7.8,1.3,14.18,14.18,0,0,1-6.8-1.3,10.14,10.14,0,0,1-3.6-3.1,18.39,18.39,0,0,1-1.8-3.3,3.1,3.1,0,0,0-1.1-1.8,2.73,2.73,0,0,0-1.6-.4h-4.8a2.5,2.5,0,0,0-1.8.8,2,2,0,0,0-.7,1.9,15.77,15.77,0,0,0,1.2,4.1,17.26,17.26,0,0,0,3.5,5.1,19.52,19.52,0,0,0,6.8,4.4,29.84,29.84,0,0,0,11.2,1.8c5.8,0,10.4-1,13.9-3a18.26,18.26,0,0,0,7.5-8.3,30.06,30.06,0,0,0,2.3-11.9V183.7a2.73,2.73,0,0,0-.8-1.9A2.56,2.56,0,0,0,1286.6,181Zm-7.3,25.8c0,1.3,0,2.5-.1,3.4a22,22,0,0,1-1.5,7,13,13,0,0,1-4.4,5.7,12.65,12.65,0,0,1-7.8,2.2c-3.2,0-5.9-.7-7.8-2.2a13.3,13.3,0,0,1-4.2-5.7,31.85,31.85,0,0,1-1.5-7.7,45.11,45.11,0,0,1,0-5.2,24.5,24.5,0,0,1,1.5-7.7,11,11,0,0,1,4.2-5.7c1.9-1.5,4.6-2.2,7.8-2.2a13.12,13.12,0,0,1,7.8,2.2,13.74,13.74,0,0,1,4.4,5.7,19.13,19.13,0,0,1,1.5,7A29.19,29.19,0,0,1,1279.3,206.8Z" transform="translate(-121.1 -66.9)"/><path class="cls-1" d="M1346.6,181h-5a2.4,2.4,0,0,0-2.5,2.5V211c0,4.5-1.2,8.1-3.7,10.7s-5.7,3.8-9.7,3.8c-8.5,0-12.7-4.8-12.7-14.5V183.5a2.4,2.4,0,0,0-2.5-2.5h-5a2.4,2.4,0,0,0-2.5,2.5v28a28.73,28.73,0,0,0,2.3,11.7,17.77,17.77,0,0,0,6.8,8,19.9,19.9,0,0,0,10.9,2.9,21.48,21.48,0,0,0,10.2-2.1,20,20,0,0,0,6.1-5.1v3.7a2.4,2.4,0,0,0,2.5,2.5h4.7a2.41,2.41,0,0,0,1.8-.7,2.87,2.87,0,0,0,.7-1.8V183.5a2.41,2.41,0,0,0-.7-1.8A2.09,2.09,0,0,0,1346.6,181Z" transform="translate(-121.1 -66.9)"/><path class="cls-1" d="M1399.9,185.8a17,17,0,0,0-6.5-4.2,29.29,29.29,0,0,0-10.1-1.6,25,25,0,0,0-9.2,1.5,21.55,21.55,0,0,0-6.2,3.6,17.12,17.12,0,0,0-3.6,4.3,8.61,8.61,0,0,0-1.2,3.8,2.52,2.52,0,0,0,.6,1.7,2.14,2.14,0,0,0,1.8.7h4.5a2.37,2.37,0,0,0,2.3-1.6,9.64,9.64,0,0,1,3.8-4.5,12.54,12.54,0,0,1,7-1.7c4,0,6.9.9,8.7,2.6s2.7,4.2,2.7,7.3v2.7l-14.6,2.1c-6,.9-10.9,2.7-14.6,5.4a13.14,13.14,0,0,0-5.7,11.1,13.42,13.42,0,0,0,2.5,7.8,17.49,17.49,0,0,0,6.6,5.4,20.94,20.94,0,0,0,9.1,2,23.86,23.86,0,0,0,8.1-1.2,17.8,17.8,0,0,0,5.5-2.9,22.3,22.3,0,0,0,3.1-3v3.5a2.41,2.41,0,0,0,.7,1.8,2.35,2.35,0,0,0,1.9.7h4.6a2.4,2.4,0,0,0,2.5-2.5V198.4a21.87,21.87,0,0,0-1.1-6.7A12.69,12.69,0,0,0,1399.9,185.8Zm-5.4,21.8v2.5a19.16,19.16,0,0,1-1.9,9.1,12.12,12.12,0,0,1-5.2,5.3,16.33,16.33,0,0,1-7.3,1.7,14.4,14.4,0,0,1-5.1-.9,10.49,10.49,0,0,1-4.1-2.7,6.86,6.86,0,0,1-1.6-4.5c0-2.3,1.2-4.2,3.5-5.7s5.9-2.6,10.5-3.3Z" transform="translate(-121.1 -66.9)"/><path class="cls-1" d="M1460.1,181h-4.7a2.44,2.44,0,0,0-1.8.6,3.81,3.81,0,0,0-.9,1.3l-15.3,35.6-14.9-35.6a2.58,2.58,0,0,0-.8-1.3,2.44,2.44,0,0,0-1.8-.6H1415a2.19,2.19,0,0,0-1.7.7,2.41,2.41,0,0,0-.7,1.7,6.2,6.2,0,0,0,.5,1.8l18.9,44.7-7.6,18.1c-.2.4-.3.8-.4,1a2.77,2.77,0,0,0-.1.9,2.13,2.13,0,0,0,.7,1.6,2.36,2.36,0,0,0,1.6.7h4.7a2.44,2.44,0,0,0,1.8-.6,3.81,3.81,0,0,0,.9-1.3l28.2-65.1a7.57,7.57,0,0,0,.5-1.9,2.13,2.13,0,0,0-.7-1.6C1461.4,181.2,1460.8,181,1460.1,181Z" transform="translate(-121.1 -66.9)"/><path class="cls-1" d="M1510,191.7a17.91,17.91,0,0,0-3.4-6,17,17,0,0,0-6.5-4.2,29.29,29.29,0,0,0-10.1-1.6,25,25,0,0,0-9.2,1.5,21.55,21.55,0,0,0-6.2,3.6,17.12,17.12,0,0,0-3.6,4.3,8.61,8.61,0,0,0-1.2,3.8,2.52,2.52,0,0,0,.6,1.7,2.14,2.14,0,0,0,1.8.7h4.5a2.37,2.37,0,0,0,2.3-1.6,9.64,9.64,0,0,1,3.8-4.5,12.54,12.54,0,0,1,7-1.7c4,0,6.9.9,8.7,2.6s2.7,4.2,2.7,7.3v2.7l-14.6,2.1c-6,.9-10.9,2.7-14.6,5.4a13.14,13.14,0,0,0-5.7,11.1,13.42,13.42,0,0,0,2.5,7.8,17.49,17.49,0,0,0,6.6,5.4,20.94,20.94,0,0,0,9.1,2,23.86,23.86,0,0,0,8.1-1.2,17.8,17.8,0,0,0,5.5-2.9,22.3,22.3,0,0,0,3.1-3v3.5a2.41,2.41,0,0,0,.7,1.8,2.35,2.35,0,0,0,1.9.7h4.6a2.4,2.4,0,0,0,2.5-2.5V198.3A19.12,19.12,0,0,0,1510,191.7Zm-8.8,15.9v2.5a18.89,18.89,0,0,1-1.9,9.1,12.12,12.12,0,0,1-5.2,5.3,16.33,16.33,0,0,1-7.3,1.7,14.4,14.4,0,0,1-5.1-.9,10.49,10.49,0,0,1-4.1-2.7,6.86,6.86,0,0,1-1.6-4.5c0-2.3,1.2-4.2,3.5-5.7s5.9-2.6,10.5-3.3Z" transform="translate(-121.1 -66.9)"/><path class="cls-1" d="M590.9,281.3h-4.8a2.4,2.4,0,0,0-2.5,2.5V306a22,22,0,0,0-6-4.7,20.75,20.75,0,0,0-9.9-2.1,21.16,21.16,0,0,0-9.5,2,17.49,17.49,0,0,0-6.6,5.4,24.09,24.09,0,0,0-3.8,7.7,38.41,38.41,0,0,0-1.4,9c-.1,1-.1,2.1-.1,3s0,2,.1,3a38.44,38.44,0,0,0,1.4,9.1,23.11,23.11,0,0,0,3.8,7.7,18.23,18.23,0,0,0,6.6,5.3,21.78,21.78,0,0,0,9.5,2,20,20,0,0,0,10-2.2,21,21,0,0,0,6.1-4.8v3.5a2.41,2.41,0,0,0,.7,1.8,2.35,2.35,0,0,0,1.9.7h4.5a2.4,2.4,0,0,0,2.5-2.5V284a2.41,2.41,0,0,0-.7-1.8A2,2,0,0,0,590.9,281.3Zm-7.2,44.6c0,1.5,0,2.7-.1,3.8a19.79,19.79,0,0,1-1.6,7.1,13.74,13.74,0,0,1-4.4,5.7c-1.9,1.5-4.6,2.2-7.8,2.2s-6-.7-7.9-2.2a13.3,13.3,0,0,1-4.2-5.7,31.85,31.85,0,0,1-1.5-7.7,54.2,54.2,0,0,1,0-5.7,24.5,24.5,0,0,1,1.5-7.7,11,11,0,0,1,4.2-5.7c1.9-1.5,4.6-2.2,7.9-2.2a12.66,12.66,0,0,1,7.6,2.1,13.39,13.39,0,0,1,4.5,5.5,16.51,16.51,0,0,1,1.6,6.8A20.6,20.6,0,0,1,583.7,325.9Z" transform="translate(-121.1 -66.9)"/><path class="cls-1" d="M641.4,302.4a26.54,26.54,0,0,0-24.7-.3,20,20,0,0,0-8,8.3,30.78,30.78,0,0,0-3.3,12.5,32.19,32.19,0,0,0-.1,3.3,30.22,30.22,0,0,0,.1,3.3c.4,7.3,2.7,13.2,6.7,17.4s9.6,6.4,16.6,6.4a29.14,29.14,0,0,0,9.2-1.4,22.85,22.85,0,0,0,6.8-3.5,19.42,19.42,0,0,0,4.3-4.3,7.48,7.48,0,0,0,1.6-3.7,2,2,0,0,0-.6-1.8,2.52,2.52,0,0,0-1.7-.6h-4.9a3.69,3.69,0,0,0-1.7.3,5.15,5.15,0,0,0-1.5,1.5,14.66,14.66,0,0,1-1.9,2.1,15.48,15.48,0,0,1-3.8,2.4,14.11,14.11,0,0,1-5.9,1.1,12,12,0,0,1-7-2.1,13.06,13.06,0,0,1-4.5-5.6,22.91,22.91,0,0,1-1.8-7.5v-.6h34.1a2.41,2.41,0,0,0,1.8-.7,2.35,2.35,0,0,0,.7-1.9v-1.7a33,33,0,0,0-2.7-13.8A20.42,20.42,0,0,0,641.4,302.4Zm-20,6.5a14,14,0,0,1,14.4,0,12.16,12.16,0,0,1,4.6,5.4,17.84,17.84,0,0,1,1.6,7.8H615.3a17.54,17.54,0,0,1,1.6-7.8A13.91,13.91,0,0,1,621.4,308.9Z" transform="translate(-121.1 -66.9)"/><path class="cls-1" d="M728.2,317.8a79.86,79.86,0,0,0-13-4.6,80.45,80.45,0,0,1-10.6-3.6,15.14,15.14,0,0,1-5.9-3.9,9.1,9.1,0,0,1,2.1-12.9c2.6-1.6,6.1-2.4,10.3-2.4s7.6.9,10.2,2.7a10,10,0,0,1,4.5,6.7,2.67,2.67,0,0,0,1.3,1.6,3.17,3.17,0,0,0,1.6.4H734a2.48,2.48,0,0,0,1.8-.7,2.26,2.26,0,0,0,.5-1.5,14.84,14.84,0,0,0-1.7-6.2,21.43,21.43,0,0,0-4.7-5.9,24.44,24.44,0,0,0-7.8-4.4,32.4,32.4,0,0,0-10.9-1.7,31.1,31.1,0,0,0-13.2,2.5,19.92,19.92,0,0,0-8.4,6.8,17.05,17.05,0,0,0-2.9,9.7,17.39,17.39,0,0,0,2.4,9.5,17.72,17.72,0,0,0,7.2,6.2,62.85,62.85,0,0,0,12.1,4.6c4.6,1.3,8.4,2.6,11.3,3.7a18,18,0,0,1,6.4,3.8,7.31,7.31,0,0,1,2.1,5.4,9.45,9.45,0,0,1-3.9,7.9c-2.6,2-6.8,3-12.4,3a22.81,22.81,0,0,1-9-1.5,13.67,13.67,0,0,1-5.3-3.8,12.75,12.75,0,0,1-2.4-4.6,2.37,2.37,0,0,0-.9-1.5,2.82,2.82,0,0,0-2-.7H687a2.19,2.19,0,0,0-1.7.7,2.13,2.13,0,0,0-.7,1.6,16,16,0,0,0,3.4,9,23.54,23.54,0,0,0,9.1,7c3.9,1.8,8.8,2.7,14.6,2.7a36.94,36.94,0,0,0,14-2.4,21.31,21.31,0,0,0,9.3-6.8,17.76,17.76,0,0,0,3.3-10.8c0-3.8-.8-7-2.5-9.4A17.75,17.75,0,0,0,728.2,317.8Z" transform="translate(-121.1 -66.9)"/><path class="cls-1" d="M795.3,313.9a24.32,24.32,0,0,0-3.9-7.5,17.45,17.45,0,0,0-6.5-5.2,21.64,21.64,0,0,0-9.6-1.9,19.41,19.41,0,0,0-16.1,7.1v-3.6a2.4,2.4,0,0,0-2.5-2.5h-4.6a2.4,2.4,0,0,0-2.5,2.5v65.9a2.4,2.4,0,0,0,2.5,2.5H757a2.41,2.41,0,0,0,1.8-.7,2.87,2.87,0,0,0,.7-1.8V346.4a19.71,19.71,0,0,0,15.8,7,21.61,21.61,0,0,0,9.6-2,19.68,19.68,0,0,0,6.5-5.2,24.32,24.32,0,0,0,3.9-7.5,32.52,32.52,0,0,0,1.5-8.9c.1-1.1.1-2.2.1-3.4s0-2.3-.1-3.4A42.2,42.2,0,0,0,795.3,313.9Zm-8.6,15.2a24.5,24.5,0,0,1-1.5,7.7,11.4,11.4,0,0,1-4.1,5.7,13.23,13.23,0,0,1-7.9,2.2,13.09,13.09,0,0,1-7.6-2.1,13.39,13.39,0,0,1-4.5-5.5,16.51,16.51,0,0,1-1.6-6.8c-.1-1.1-.1-2.4-.1-3.9s0-2.7.1-3.8a22.15,22.15,0,0,1,1.6-7.1,13,13,0,0,1,4.4-5.7,12.54,12.54,0,0,1,7.7-2.2c3.4,0,6,.7,7.9,2.2a12.34,12.34,0,0,1,4.1,5.7,31.85,31.85,0,0,1,1.5,7.7A58,58,0,0,1,786.7,329.1Z" transform="translate(-121.1 -66.9)"/><path class="cls-1" d="M842.3,302.4a26.54,26.54,0,0,0-24.7-.3,20,20,0,0,0-8,8.3,30.78,30.78,0,0,0-3.3,12.5,32.19,32.19,0,0,0-.1,3.3,30.22,30.22,0,0,0,.1,3.3c.4,7.3,2.7,13.2,6.7,17.4s9.6,6.4,16.6,6.4a29.14,29.14,0,0,0,9.2-1.4,22.85,22.85,0,0,0,6.8-3.5,19.42,19.42,0,0,0,4.3-4.3,7.48,7.48,0,0,0,1.6-3.7,2,2,0,0,0-.6-1.8,2.52,2.52,0,0,0-1.7-.6h-4.9a3.69,3.69,0,0,0-1.7.3,5.15,5.15,0,0,0-1.5,1.5,14.66,14.66,0,0,1-1.9,2.1,15.48,15.48,0,0,1-3.8,2.4,14.11,14.11,0,0,1-5.9,1.1,12,12,0,0,1-7-2.1,13.06,13.06,0,0,1-4.5-5.6,22.91,22.91,0,0,1-1.8-7.5v-.6h34.1a2.41,2.41,0,0,0,1.8-.7,2.35,2.35,0,0,0,.7-1.9v-1.7a33,33,0,0,0-2.7-13.8A20.42,20.42,0,0,0,842.3,302.4Zm-20,6.5a14,14,0,0,1,14.4,0,12.16,12.16,0,0,1,4.6,5.4,17.84,17.84,0,0,1,1.6,7.8H816.2a17.54,17.54,0,0,1,1.6-7.8A13.91,13.91,0,0,1,822.3,308.9Z" transform="translate(-121.1 -66.9)"/><path class="cls-1" d="M897.9,302.4a26.54,26.54,0,0,0-24.7-.3,20,20,0,0,0-8,8.3,30.78,30.78,0,0,0-3.3,12.5,32.19,32.19,0,0,0-.1,3.3,30.22,30.22,0,0,0,.1,3.3c.4,7.3,2.7,13.2,6.7,17.4s9.6,6.4,16.6,6.4a29.14,29.14,0,0,0,9.2-1.4,22.85,22.85,0,0,0,6.8-3.5,19.42,19.42,0,0,0,4.3-4.3,7.48,7.48,0,0,0,1.6-3.7,2,2,0,0,0-.6-1.8,2.52,2.52,0,0,0-1.7-.6h-4.9a3.69,3.69,0,0,0-1.7.3,5.15,5.15,0,0,0-1.5,1.5,14.66,14.66,0,0,1-1.9,2.1,15.48,15.48,0,0,1-3.8,2.4,14.11,14.11,0,0,1-5.9,1.1,12,12,0,0,1-7-2.1,13.06,13.06,0,0,1-4.5-5.6,22.91,22.91,0,0,1-1.8-7.5v-.6H906a2.41,2.41,0,0,0,1.8-.7,2.35,2.35,0,0,0,.7-1.9v-1.7a33,33,0,0,0-2.7-13.8A21.27,21.27,0,0,0,897.9,302.4ZM878,308.9a14,14,0,0,1,14.4,0,12.16,12.16,0,0,1,4.6,5.4,17.84,17.84,0,0,1,1.6,7.8H871.9a17.54,17.54,0,0,1,1.6-7.8A13.1,13.1,0,0,1,878,308.9Z" transform="translate(-121.1 -66.9)"/><path class="cls-1" d="M962.2,281.3h-4.8a2.4,2.4,0,0,0-2.5,2.5V306a22,22,0,0,0-6-4.7,20.75,20.75,0,0,0-9.9-2.1,21.16,21.16,0,0,0-9.5,2,17.49,17.49,0,0,0-6.6,5.4,24.09,24.09,0,0,0-3.8,7.7,37.61,37.61,0,0,0-1.4,9c-.1,1.1-.1,2.1-.1,3s0,1.9.1,3a37.66,37.66,0,0,0,1.4,9.1,23.11,23.11,0,0,0,3.8,7.7,18.23,18.23,0,0,0,6.6,5.3,21.78,21.78,0,0,0,9.5,2,20,20,0,0,0,10-2.2,21,21,0,0,0,6.1-4.8v3.5a2.41,2.41,0,0,0,.7,1.8,2.35,2.35,0,0,0,1.9.7h4.5a2.4,2.4,0,0,0,2.5-2.5V284a2.41,2.41,0,0,0-.7-1.8A2.27,2.27,0,0,0,962.2,281.3ZM955,325.9c0,1.4,0,2.7-.1,3.8a19.79,19.79,0,0,1-1.6,7.1,13.74,13.74,0,0,1-4.4,5.7c-1.9,1.5-4.6,2.2-7.8,2.2s-6-.7-7.9-2.2a13.3,13.3,0,0,1-4.2-5.7,27.69,27.69,0,0,1-1.5-7.7,54.2,54.2,0,0,1,0-5.7,24.5,24.5,0,0,1,1.5-7.7,11,11,0,0,1,4.2-5.7c1.9-1.5,4.6-2.2,7.9-2.2a13.2,13.2,0,0,1,7.7,2.1,13.39,13.39,0,0,1,4.5,5.5,16.51,16.51,0,0,1,1.6,6.8C955,323.2,955,324.5,955,325.9Z" transform="translate(-121.1 -66.9)"/><path class="cls-1" d="M990.7,311.2a12.9,12.9,0,0,1,9.5-3.6,14.37,14.37,0,0,1,7.5,1.9c2,1.3,3.6,3.6,4.8,6.7a3.44,3.44,0,0,0,1.1,1.6,2.65,2.65,0,0,0,1.7.5h4.8a2.81,2.81,0,0,0,1.9-.7,2.09,2.09,0,0,0,.7-1.8,16.18,16.18,0,0,0-1.5-5.6,17.21,17.21,0,0,0-4.1-5.4,19.47,19.47,0,0,0-6.9-4.1,27.25,27.25,0,0,0-10-1.6,25.11,25.11,0,0,0-12.3,2.8,19.63,19.63,0,0,0-8,7.9,26.41,26.41,0,0,0-3,12.4c-.1,1-.1,2.3-.1,4s0,3,.1,4a26.72,26.72,0,0,0,3,12.4,19.63,19.63,0,0,0,8,7.9,26.27,26.27,0,0,0,12.3,2.8,29.79,29.79,0,0,0,8.3-1.1,20.83,20.83,0,0,0,6.2-2.8,21.21,21.21,0,0,0,4.4-4,15.16,15.16,0,0,0,3.5-8.8,2,2,0,0,0-.7-1.8,2.49,2.49,0,0,0-1.9-.7h-4.8a2.35,2.35,0,0,0-1.7.6,4.49,4.49,0,0,0-1,1.7c-1.2,3.2-2.8,5.4-4.8,6.7a13.48,13.48,0,0,1-7.5,1.9,12.9,12.9,0,0,1-9.5-3.6c-2.4-2.4-3.8-6.3-3.9-11.7-.1-2.2-.1-4.6,0-6.9C987,317.5,988.3,313.5,990.7,311.2Z" transform="translate(-121.1 -66.9)"/><path class="cls-1" d="M1076.9,300.2h-5a2.4,2.4,0,0,0-2.5,2.5v27.5c0,4.5-1.2,8.1-3.7,10.7s-5.7,3.8-9.7,3.8c-8.5,0-12.7-4.8-12.7-14.5V302.7a2.4,2.4,0,0,0-2.5-2.5h-5a2.4,2.4,0,0,0-2.5,2.5v28a28.73,28.73,0,0,0,2.3,11.7,17.77,17.77,0,0,0,6.8,8,19.9,19.9,0,0,0,10.9,2.9,21.48,21.48,0,0,0,10.2-2.1,20,20,0,0,0,6.1-5.1v3.7a2.4,2.4,0,0,0,2.5,2.5h4.7a2.41,2.41,0,0,0,1.8-.7,2.87,2.87,0,0,0,.7-1.8V302.7a2.41,2.41,0,0,0-.7-1.8A2.06,2.06,0,0,0,1076.9,300.2Z" transform="translate(-121.1 -66.9)"/><path class="cls-1" d="M1139.4,314.3a24.29,24.29,0,0,0-3.9-7.7,18,18,0,0,0-6.5-5.4,21.61,21.61,0,0,0-9.6-2,20.6,20.6,0,0,0-9.8,2.1,22,22,0,0,0-6,4.7V283.8a2.41,2.41,0,0,0-.7-1.8,2.14,2.14,0,0,0-1.8-.7h-4.9a2.4,2.4,0,0,0-2.5,2.5v65.9a2.4,2.4,0,0,0,2.5,2.5h4.6a2.4,2.4,0,0,0,2.5-2.5v-3.4a20.49,20.49,0,0,0,6,4.8,23.93,23.93,0,0,0,19.6.2,18.75,18.75,0,0,0,6.5-5.3,24.29,24.29,0,0,0,3.9-7.7,34,34,0,0,0,1.5-9.1c.1-1.1.1-2.1.1-3s0-1.9-.1-3A29.57,29.57,0,0,0,1139.4,314.3Zm-8.5,14.8a24.5,24.5,0,0,1-1.5,7.7,11.4,11.4,0,0,1-4.1,5.7,13.23,13.23,0,0,1-7.9,2.2,12.79,12.79,0,0,1-7.7-2.2,13,13,0,0,1-4.4-5.7,22.15,22.15,0,0,1-1.6-7.1c-.1-1-.1-2.3-.1-3.8s0-2.8.1-3.8a18.72,18.72,0,0,1,1.6-6.8,14.06,14.06,0,0,1,4.5-5.5,13.09,13.09,0,0,1,7.6-2.1c3.4,0,6,.7,7.9,2.2a12.34,12.34,0,0,1,4.1,5.7,31.85,31.85,0,0,1,1.5,7.7Z" transform="translate(-121.1 -66.9)"/><path class="cls-1" d="M1160,300.2h-4.8a2.4,2.4,0,0,0-2.5,2.5v47.1a2.4,2.4,0,0,0,2.5,2.5h4.8a2.4,2.4,0,0,0,2.5-2.5V302.7a2.41,2.41,0,0,0-.7-1.8A2.27,2.27,0,0,0,1160,300.2Z" transform="translate(-121.1 -66.9)"/><path class="cls-1" d="M1160.7,280.5h-6.3a2.57,2.57,0,0,0-2.5,2.7v5.4a2.4,2.4,0,0,0,2.5,2.5h6.3a2.64,2.64,0,0,0,1.9-.7,2.5,2.5,0,0,0,.8-1.8v-5.4a2.73,2.73,0,0,0-2.7-2.7Z" transform="translate(-121.1 -66.9)"/><path class="cls-1" d="M1214.8,302.1a20.6,20.6,0,0,0-11.1-2.9c-4.1,0-7.6.7-10.2,2.2a20,20,0,0,0-6.1,5v-3.7a2.4,2.4,0,0,0-2.5-2.5h-4.7a2.4,2.4,0,0,0-2.5,2.5v47.1a2.4,2.4,0,0,0,2.5,2.5h5a2.4,2.4,0,0,0,2.5-2.5V322.3c0-4.5,1.2-8.1,3.7-10.7s5.7-3.8,9.7-3.8c4.3,0,7.5,1.3,9.7,3.8s3.3,6.2,3.3,10.7v27.5a2.4,2.4,0,0,0,2.5,2.5h5a2.4,2.4,0,0,0,2.5-2.5v-28a27.64,27.64,0,0,0-2.4-11.8A17.65,17.65,0,0,0,1214.8,302.1Z" transform="translate(-121.1 -66.9)"/><path class="cls-1" d="M1280.2,300.2h-4.6a2.57,2.57,0,0,0-2.5,2.7v3.5a21.07,21.07,0,0,0-6-5,20,20,0,0,0-10-2.2,21.61,21.61,0,0,0-9.6,2,17.49,17.49,0,0,0-6.6,5.4,24.09,24.09,0,0,0-3.8,7.7,38.41,38.41,0,0,0-1.4,9,50.46,50.46,0,0,0,0,5.5,38.41,38.41,0,0,0,1.4,9,23.11,23.11,0,0,0,3.8,7.7,18.23,18.23,0,0,0,6.6,5.3,21.92,21.92,0,0,0,9.6,2,20.6,20.6,0,0,0,9.8-2.1,19.5,19.5,0,0,0,5.9-4.6v6c0,3.6-.5,6.4-1.6,8.4a9.38,9.38,0,0,1-4.7,4.3,21.9,21.9,0,0,1-7.8,1.3,14.18,14.18,0,0,1-6.8-1.3,10.14,10.14,0,0,1-3.6-3.1,18.39,18.39,0,0,1-1.8-3.3,3.1,3.1,0,0,0-1.1-1.8,2.73,2.73,0,0,0-1.6-.4H1239a2.5,2.5,0,0,0-1.8.8,2,2,0,0,0-.7,1.9,12.6,12.6,0,0,0,1.2,4.1,17.26,17.26,0,0,0,3.5,5.1,19.52,19.52,0,0,0,6.8,4.4,29.84,29.84,0,0,0,11.2,1.8c5.8,0,10.4-1,13.9-3a18.26,18.26,0,0,0,7.5-8.3,30.06,30.06,0,0,0,2.3-11.9V302.9a2.73,2.73,0,0,0-.8-1.9A2.93,2.93,0,0,0,1280.2,300.2Zm-7.3,25.8c0,1.3,0,2.5-.1,3.4a22,22,0,0,1-1.5,7,13,13,0,0,1-4.4,5.7,12.65,12.65,0,0,1-7.8,2.2c-3.2,0-5.9-.7-7.8-2.2a13.3,13.3,0,0,1-4.2-5.7,31.85,31.85,0,0,1-1.5-7.7,45.11,45.11,0,0,1,0-5.2,24.5,24.5,0,0,1,1.5-7.7,11,11,0,0,1,4.2-5.7c1.9-1.5,4.6-2.2,7.8-2.2a13.12,13.12,0,0,1,7.8,2.2,13.74,13.74,0,0,1,4.4,5.7,19.13,19.13,0,0,1,1.5,7A28.26,28.26,0,0,1,1272.9,326Z" transform="translate(-121.1 -66.9)"/><path class="cls-1" d="M462.4,158.2,310,70.2a24.76,24.76,0,0,0-24.7,0l-151.4,88a24.57,24.57,0,0,0-12.3,21.2l-.5,175.1a24.77,24.77,0,0,0,12.3,21.4l152.4,88a24.4,24.4,0,0,0,12.3,3.3,24.77,24.77,0,0,0,12.4-3.3l151.4-88a24.57,24.57,0,0,0,12.3-21.2l.5-175.1A24.77,24.77,0,0,0,462.4,158.2ZM313.7,131.1c.1,0,.1-.1.2-.1,22.7-13.1,59.5-13.1,82.4,0,.1,0,.1.1.2.1,3.9,2.2,3.9,5.7.1,7.9l-34.3,20a15.25,15.25,0,0,1-13.8,0l-.3-.1-34.1-19.7-.3-.1C309.9,136.9,309.9,133.3,313.7,131.1Zm-80.2-20c.1,0,.1-.1.2-.1a15.25,15.25,0,0,1,13.8,0l34.6,20c3.8,2.2,3.8,5.8.1,8l-34.3,20a15.25,15.25,0,0,1-13.8,0c-.1,0-.1-.1-.2-.1C211.1,145.6,211,124.3,233.5,111.1ZM179,383.3c-.1,4.3-3.2,6.1-7,3.9-.1,0-.1-.1-.2-.1-22.9-13.3-41.3-45.2-41.3-71.4v-.2c.1-4.3,3.2-6.1,7-3.9l34.6,20a15.21,15.21,0,0,1,7,12Zm.2-65.4c0,4.6-3.2,6.4-7.2,4.1l-34.1-19.7a15.87,15.87,0,0,1-7.2-12.4l.1-39.1c0-4.6,3.2-6.4,7.2-4.1l34.1,19.7a16.26,16.26,0,0,1,7.2,12.4Zm.2-65.9c0,4.6-3.2,6.4-7.2,4.1l-34.1-19.7a15.87,15.87,0,0,1-7.2-12.4l.1-39.1c0-4.6,3.2-6.4,7.2-4.1l34.1,19.7a16.26,16.26,0,0,1,7.2,12.4Zm57,164.2c0,4.6-3.2,6.4-7.2,4.1l-34.1-19.7a15.72,15.72,0,0,1-7.2-12.4l.1-39.1c0-4.6,3.2-6.4,7.2-4.1l34.2,19.7a15.88,15.88,0,0,1,7.1,12.4ZM200,205.3c-.1,0-.1-.1-.2-.1-3.9-2.2-3.9-5.8-.1-8l.3-.1,33.8-19.7.3-.1a15.25,15.25,0,0,1,13.8,0l34.6,20c3.9,2.2,3.9,5.8.1,7.9-.1,0-.1.1-.2.1C259.7,218.4,222.9,218.4,200,205.3ZM294.1,410c-.1,26.1-18.7,36.7-41.5,23.6-.1,0-.1-.1-.2-.1a15.19,15.19,0,0,1-6.9-11.9v-.3l.1-39.1v-.3c0-4.3,3.1-6.1,6.9-3.9l34.6,20a15.72,15.72,0,0,1,7,11.8Zm0-26.6c0,4.6-3.2,6.4-7.2,4.1l-34.1-19.7a15.87,15.87,0,0,1-7.2-12.4l.1-39.1c0-4.6,3.2-6.4,7.2-4.1L287,331.9a15.87,15.87,0,0,1,7.2,12.4Zm.2-65.9c0,4.6-3.2,6.4-7.2,4.1L253,301.9a15.87,15.87,0,0,1-7.2-12.4l.1-39.1c0-4.6,3.2-6.4,7.2-4.1L287.2,266a15.87,15.87,0,0,1,7.2,12.4ZM291.2,192l-34.1-19.7c-4-2.3-4-6-.1-8.3l33.9-19.7c3.9-2.3,10.3-2.3,14.3,0L339.3,164c4,2.3,4,6,0,8.3L305.5,192C301.6,194.3,295.2,194.3,291.2,192Zm59.7,163.8a15.34,15.34,0,0,1-6.9,11.9c-.1,0-.1.1-.2.1-22.7,13-41,2.5-41-23.6V344a15.34,15.34,0,0,1,6.9-11.9l34.4-20c3.8-2.2,6.9-.5,6.9,3.9Zm.1-66.3a16.26,16.26,0,0,1-7.2,12.4l-33.9,19.7c-3.9,2.3-7.1.4-7.1-4.1l.1-39.1a16.26,16.26,0,0,1,7.2-12.4l34-19.7c3.9-2.3,7.1-.4,7,4.1Zm-2-64.3-.3-.1-34.1-19.7-.3-.1c-3.9-2.2-3.9-5.8-.1-8l.3-.1,33.8-19.7.3-.1a15.25,15.25,0,0,1,13.8,0,.31.31,0,0,0,.2-.1c22.8,13.3,22.9,34.6.4,47.8-.1,0-.1.1-.2.1A15.25,15.25,0,0,1,349,225.2Zm58.8,163a16.26,16.26,0,0,1-7.2,12.4l-33.9,19.7c-3.9,2.3-7.1.5-7.1-4.1l.1-39.1a16.26,16.26,0,0,1,7.2-12.4L400.8,345c3.9-2.3,7.1-.5,7.1,4.1Zm.2-66a16.26,16.26,0,0,1-7.2,12.4l-33.9,19.7c-3.9,2.3-7.1.4-7.1-4.1l.1-39.1a16.26,16.26,0,0,1,7.2-12.4L401,279c3.9-2.2,7.1-.4,7.1,4.1Zm57.3-72.5c-.2,26.2-18.6,58.1-41.3,71.4-.1,0-.1.1-.2.1-3.8,2.3-6.9.5-6.9-3.9V317l.1-39.1v-.3a15.34,15.34,0,0,1,6.9-11.9l34.4-20c3.8-2.2,6.9-.4,7,3.8Zm0-26.6c0,4.6-3.3,10.1-7.2,12.4l-33.9,19.7c-3.9,2.3-7.1.4-7.1-4.1l.1-39.1a16.26,16.26,0,0,1,7.2-12.4l33.9-19.7c3.9-2.3,7.1-.4,7.1,4.1Z" transform="translate(-121.1 -66.9)"/></svg>