<?xml version="1.0" encoding="utf-8"?>
<!-- Generator: Adobe Illustrator 21.0.0, SVG Export Plug-In . SVG Version: 6.00 Build 0)  -->
<svg version="1.1" id="Capa_1" xmlns="http://www.w3.org/2000/svg" xmlns:xlink="http://www.w3.org/1999/xlink" x="0px" y="0px"
	 viewBox="0 0 533.2 533.2" style="enable-background:new 0 0 533.2 533.2;" xml:space="preserve">
<style type="text/css">
	.st0{fill:#231F20;}
	.st1{fill:#2061BB;}
	.st2{fill:#EFEFEF;}
	.st3{fill:#FFCC05;}
</style>
<g>
	<g>
		<path class="st0" d="M298.1,467.2c-4.3,0-8.5-1.1-12.3-3.3l-152.4-88c-7.6-4.4-12.3-12.6-12.3-21.4l0.5-175.1
			c0-8.7,4.7-16.8,12.3-21.2l151.4-88c7.6-4.4,17.1-4.4,24.7,0l152.4,88c7.6,4.4,12.3,12.6,12.3,21.4l-0.5,175.1
			c0,8.7-4.7,16.8-12.3,21.2l-151.4,88C306.7,466.1,302.4,467.2,298.1,467.2z"/>
		<path class="st1" d="M457.9,311.8L424,331.5c-3.9,2.3-7.1,7.8-7.2,12.4l-0.1,39.1c0,4.6,3.2,6.4,7.1,4.1l33.9-19.7
			c3.9-2.3,7.2-7.8,7.2-12.4l0.1-39.1C465,311.3,461.8,309.5,457.9,311.8"/>
		<path class="st2" d="M400.8,345l-33.9,19.7c-3.9,2.3-7.1,7.8-7.2,12.4l-0.1,39.1c0,4.6,3.2,6.4,7.1,4.1l33.9-19.7
			c3.9-2.3,7.1-7.8,7.2-12.4l0.1-39.1C407.9,344.5,404.7,342.7,400.8,345"/>
		<path class="st1" d="M343.7,378.1l-33.9,19.7c-3.9,2.3-7.1,7.8-7.2,12.4l-0.1,39.1c0,4.6,3.2,6.4,7.1,4.1l33.9-19.7
			c3.9-2.3,7.1-7.8,7.2-12.4l0.1-39.1C350.8,377.7,347.6,375.9,343.7,378.1"/>
		<path class="st1" d="M465.2,249.8c-0.2,26.2-18.6,58.1-41.3,71.4h0.1l33.9-19.7c3.9-2.3,7.2-7.8,7.2-12.4L465.2,249.8
			C465.2,249.9,465.2,249.9,465.2,249.8"/>
		<path class="st2" d="M401,279l-33.9,19.7c-3.9,2.3-7.1,7.8-7.2,12.4l-0.1,39.1c0,4.5,3.2,6.4,7.1,4.1l33.9-19.7
			c3.9-2.3,7.1-7.8,7.2-12.4l0.1-39.1C408.1,278.6,404.9,276.8,401,279"/>
		<path class="st1" d="M302.8,344.2C302.8,344.3,302.8,344.3,302.8,344.2l-0.1,39.2c0,4.5,3.2,6.4,7.1,4.1l33.9-19.7h0.1
			C321.1,380.9,302.8,370.3,302.8,344.2"/>
		<path class="st2" d="M458.3,179.9l-33.9,19.7c-3.9,2.3-7.1,7.8-7.2,12.4l-0.1,39.1c0,4.5,3.2,6.4,7.1,4.1l33.9-19.7
			c3.9-2.3,7.2-7.8,7.2-12.4l0.1-39.1C465.4,179.5,462.2,177.6,458.3,179.9"/>
		<path class="st1" d="M401.2,213.1l-33.9,19.7c-3.9,2.3-7.1,7.8-7.2,12.4l-0.1,39.1c0,4.5,3.2,6.4,7.1,4.1l33.9-19.7
			c3.9-2.3,7.1-7.8,7.2-12.4l0.1-39.1C408.3,212.7,405.1,210.8,401.2,213.1"/>
		<path class="st2" d="M344.1,246.3l-34,19.7c-3.9,2.3-7.1,7.8-7.2,12.4l-0.1,39.1c0,4.5,3.2,6.4,7.1,4.1l33.9-19.7
			c3.9-2.3,7.1-7.8,7.2-12.4l0.1-39.1C351.2,245.9,348,244,344.1,246.3"/>
		<path class="st2" d="M458.3,245.7l-34.4,20c-3.8,2.2-6.9,7.6-6.9,11.9v0.3l-0.1,39.1v0.3c0,4.4,3.1,6.2,6.9,3.9
			c0.1,0,0.1-0.1,0.2-0.1c22.7-13.3,41.1-45.2,41.3-71.4c0-0.1,0-0.1,0-0.2C465.2,245.3,462.1,243.5,458.3,245.7"/>
		<path class="st2" d="M344.1,312.1l-34.4,20c-3.8,2.2-6.9,7.6-6.9,11.9c0,0.1,0,0.1,0,0.2c0,26.1,18.3,36.6,41,23.6
			c0.1,0,0.1-0.1,0.2-0.1c3.8-2.2,6.9-7.6,6.9-11.9L351,316C351,311.6,347.9,309.9,344.1,312.1"/>
		<path class="st1" d="M339.8,230.3l-34.1-19.7c-4-2.3-10.4-2.3-14.3,0l-33.8,19.7c-3.9,2.3-3.9,6,0.1,8.3l34.1,19.7
			c4,2.3,10.4,2.3,14.3,0l33.8-19.7C343.8,236.3,343.7,232.6,339.8,230.3"/>
		<path class="st1" d="M282.4,205.4c-22.7,13.1-59.5,13.1-82.4,0h0.1l34.1,19.7c4,2.3,10.4,2.3,14.3,0L282.4,205.4L282.4,205.4"/>
		<path class="st1" d="M224.8,164l-34.1-19.7c-4-2.3-10.4-2.3-14.3,0L142.6,164c-3.9,2.3-3.9,6,0.1,8.3l34.1,19.7
			c4,2.3,10.4,2.3,14.3,0l33.8-19.7C228.8,170,228.8,166.3,224.8,164"/>
		<path class="st1" d="M396.8,197.2l-34.1-19.7h-0.1c22.7,13.2,22.9,34.6,0.4,47.8h0.1l33.8-19.7
			C400.8,203.2,400.7,199.5,396.8,197.2"/>
		<path class="st3" d="M339.3,164l-34.1-19.7c-4-2.3-10.4-2.3-14.3,0L257,164c-3.9,2.3-3.9,6,0.1,8.3l34.1,19.7
			c4,2.3,10.4,2.3,14.3,0l33.8-19.7C343.3,170,343.3,166.3,339.3,164"/>
		<path class="st1" d="M233.4,111.1L233.4,111.1l-33.9,19.7c-3.9,2.3-3.9,6,0.1,8.3l34.1,19.7h0.1
			C211.1,145.6,210.9,124.3,233.4,111.1"/>
		<path class="st1" d="M453.8,164.1l-34.1-19.7c-4-2.3-10.4-2.3-14.3,0l-33.8,19.7c-3.9,2.3-3.9,6,0.1,8.3l34.1,19.7
			c4,2.3,10.4,2.3,14.3,0l33.8-19.7C457.8,170.1,457.7,166.4,453.8,164.1"/>
		<path class="st1" d="M396.3,130.9l-34.1-19.7c-4-2.3-10.4-2.3-14.3,0L314,130.9h-0.1C336.6,117.8,373.4,117.8,396.3,130.9
			L396.3,130.9"/>
		<path class="st1" d="M338.8,97.7L304.7,78c-4-2.3-10.4-2.3-14.3,0l-33.8,19.7c-3.9,2.3-3.9,6,0.1,8.3l34.1,19.7
			c4,2.3,10.4,2.3,14.3,0l33.8-19.7C342.8,103.7,342.8,100,338.8,97.7"/>
		<path class="st3" d="M282.5,197.3l-34.6-20c-3.8-2.2-10-2.2-13.8,0l-0.3,0.1L200,197.1l-0.3,0.1c-3.8,2.2-3.8,5.8,0.1,8
			c0.1,0,0.1,0.1,0.2,0.1c22.9,13.1,59.7,13.1,82.4,0c0.1,0,0.1-0.1,0.2-0.1C286.4,203.1,286.4,199.5,282.5,197.3"/>
		<path class="st3" d="M362.4,177.4c-3.8-2.2-10-2.2-13.8,0l-0.3,0.1l-33.8,19.7l-0.3,0.1c-3.8,2.2-3.8,5.8,0.1,8l0.3,0.1l34.1,19.7
			l0.3,0.1c3.8,2.2,10,2.2,13.8,0c0.1,0,0.1-0.1,0.2-0.1c22.5-13.2,22.4-34.5-0.4-47.8C362.5,177.4,362.4,177.4,362.4,177.4"/>
		<path class="st3" d="M282.1,131l-34.6-20c-3.8-2.2-10-2.2-13.8,0c-0.1,0-0.1,0.1-0.2,0.1c-22.5,13.2-22.4,34.5,0.4,47.8
			c0.1,0,0.1,0.1,0.2,0.1c3.8,2.2,10,2.2,13.8,0l34.3-20C285.9,136.8,285.9,133.2,282.1,131"/>
		<path class="st3" d="M396.5,131.1c-0.1,0-0.1-0.1-0.2-0.1c-22.9-13.1-59.7-13.1-82.4,0c-0.1,0-0.1,0.1-0.2,0.1
			c-3.8,2.2-3.8,5.8,0.1,8l0.3,0.1l34.1,19.7l0.3,0.1c3.8,2.2,10,2.2,13.8,0l34.3-20C400.4,136.8,400.4,133.3,396.5,131.1"/>
		<path class="st1" d="M294,410.1c-0.2,26.1-18.7,36.6-41.5,23.6c0,0,0.1,0,0.1,0.1l34.1,19.7c4,2.3,7.2,0.5,7.2-4.1L294,410.1
			C294,410.2,294,410.2,294,410.1"/>
		<path class="st2" d="M229.4,364.7L195.2,345c-4-2.3-7.2-0.5-7.2,4.1l-0.1,39.1c0,4.6,3.2,10.1,7.2,12.4l34.1,19.7
			c4,2.3,7.2,0.5,7.2-4.1l0.1-39.1C236.5,372.5,233.3,367,229.4,364.7"/>
		<path class="st1" d="M130.5,315.8L130.5,315.8l-0.1,39.2c0,4.6,3.2,10.1,7.2,12.4l34.1,19.7h0.1C149,373.9,130.6,342,130.5,315.8"
			/>
		<path class="st2" d="M287,331.9l-34.1-19.7c-4-2.3-7.2-0.5-7.2,4.1l-0.1,39.1c0,4.5,3.2,10.1,7.2,12.4l34.1,19.7
			c4,2.3,7.2,0.5,7.2-4.1l0.1-39.1C294.2,339.8,291,334.2,287,331.9"/>
		<path class="st1" d="M229.6,298.8L195.4,279c-4-2.3-7.2-0.5-7.2,4.1l-0.1,39.1c0,4.5,3.2,10.1,7.2,12.4l34.1,19.7
			c4,2.3,7.2,0.5,7.2-4.1l0.1-39.1C236.7,306.6,233.5,301,229.6,298.8"/>
		<path class="st2" d="M172.1,266.4L138,246.7c-4-2.3-7.2-0.5-7.2,4.1l-0.1,39.1c0,4.5,3.2,10.1,7.2,12.4L172,322
			c4,2.3,7.2,0.5,7.2-4.1l0.1-39.1C179.2,274.2,176,268.7,172.1,266.4"/>
		<path class="st2" d="M287.2,266l-34.1-19.7c-4-2.3-7.2-0.5-7.2,4.1l-0.1,39.1c0,4.5,3.2,10.1,7.2,12.4l34.1,19.7
			c4,2.3,7.2,0.5,7.2-4.1l0.1-39.1C294.4,273.9,291.2,268.3,287.2,266"/>
		<path class="st1" d="M229.7,232.8l-34.1-19.7c-4-2.3-7.2-0.5-7.2,4.1l-0.1,39.1c0,4.5,3.2,10.1,7.2,12.4l34.1,19.7
			c4,2.3,7.2,0.5,7.2-4.1l0.1-39.1C236.9,240.7,233.7,235.1,229.7,232.8"/>
		<path class="st2" d="M172.3,200.5l-34.1-19.7c-4-2.3-7.2-0.5-7.2,4.1l-0.1,39.1c0,4.5,3.2,10.1,7.2,12.4l34.1,19.7
			c4,2.3,7.2,0.5,7.2-4.1l0.1-39.1C179.4,208.3,176.2,202.8,172.3,200.5"/>
		<path class="st2" d="M287.1,398l-34.6-20c-3.8-2.2-6.9-0.4-6.9,3.9v0.3l-0.1,39.1v0.3c0,4.4,3.1,9.7,6.9,11.9
			c0.1,0,0.1,0.1,0.2,0.1c22.8,13.1,41.4,2.5,41.5-23.6c0-0.1,0-0.1,0-0.2C294,405.6,290.9,400.2,287.1,398"/>
		<path class="st2" d="M172.1,331.6l-34.6-20c-3.8-2.2-6.9-0.4-7,3.9c0,0.1,0,0.1,0,0.2c0,26.2,18.4,58.1,41.3,71.4
			c0.1,0,0.1,0.1,0.2,0.1c3.8,2.2,6.9,0.4,7-3.9l0.1-39.7C179.1,339.2,176,333.8,172.1,331.6"/>
	</g>
</g>
</svg>
