<?xml version="1.0" encoding="utf-8"?>
<!-- Generator: Adobe Illustrator 21.0.0, SVG Export Plug-In . SVG Version: 6.00 Build 0)  -->
<svg version="1.1" id="Capa_1" xmlns="http://www.w3.org/2000/svg" xmlns:xlink="http://www.w3.org/1999/xlink" x="0px" y="0px"
	 viewBox="0 0 533.2 533.2" style="enable-background:new 0 0 533.2 533.2;" xml:space="preserve">
<style type="text/css">
	.st0{fill:#231F20;}
</style>
<g>
	<g>
		<path class="st0" d="M462.4,158.2L310,70.2c-7.6-4.4-17.1-4.4-24.7,0l-151.4,88c-7.6,4.4-12.3,12.5-12.3,21.2l-0.5,175.1
			c0,8.8,4.7,17,12.3,21.4l152.4,88c3.8,2.2,8,3.3,12.3,3.3s8.6-1.1,12.4-3.3l151.4-88c7.6-4.4,12.3-12.5,12.3-21.2l0.5-175.1
			C474.7,170.8,470,162.6,462.4,158.2z M313.7,131.1c0.1,0,0.1-0.1,0.2-0.1c22.7-13.1,59.5-13.1,82.4,0c0.1,0,0.1,0.1,0.2,0.1
			c3.9,2.2,3.9,5.7,0.1,7.9l-34.3,20c-3.8,2.2-10,2.2-13.8,0l-0.3-0.1l-34.1-19.7l-0.3-0.1C309.9,136.9,309.9,133.3,313.7,131.1z
			 M233.5,111.1c0.1,0,0.1-0.1,0.2-0.1c3.8-2.2,10-2.2,13.8,0l34.6,20c3.8,2.2,3.8,5.8,0.1,8l-34.3,20c-3.8,2.2-10,2.2-13.8,0
			c-0.1,0-0.1-0.1-0.2-0.1C211.1,145.6,211,124.3,233.5,111.1z M179,383.3c-0.1,4.3-3.2,6.1-7,3.9c-0.1,0-0.1-0.1-0.2-0.1
			c-22.9-13.3-41.3-45.2-41.3-71.4c0-0.1,0-0.1,0-0.2c0.1-4.3,3.2-6.1,7-3.9l34.6,20c3.9,2.2,7,7.6,7,12L179,383.3z M179.2,317.9
			c0,4.6-3.2,6.4-7.2,4.1l-34.1-19.7c-4-2.3-7.2-7.9-7.2-12.4l0.1-39.1c0-4.6,3.2-6.4,7.2-4.1l34.1,19.7c3.9,2.3,7.1,7.8,7.2,12.4
			L179.2,317.9z M179.4,252c0,4.6-3.2,6.4-7.2,4.1l-34.1-19.7c-4-2.3-7.2-7.9-7.2-12.4l0.1-39.1c0-4.6,3.2-6.4,7.2-4.1l34.1,19.7
			c3.9,2.3,7.1,7.8,7.2,12.4L179.4,252z M236.4,416.2c0,4.6-3.2,6.4-7.2,4.1l-34.1-19.7c-4-2.3-7.2-7.8-7.2-12.4l0.1-39.1
			c0-4.6,3.2-6.4,7.2-4.1l34.2,19.7c3.9,2.3,7.1,7.8,7.1,12.4L236.4,416.2z M200,205.3c-0.1,0-0.1-0.1-0.2-0.1
			c-3.9-2.2-3.9-5.8-0.1-8l0.3-0.1l33.8-19.7l0.3-0.1c3.8-2.2,10-2.2,13.8,0l34.6,20c3.9,2.2,3.9,5.8,0.1,7.9
			c-0.1,0-0.1,0.1-0.2,0.1C259.7,218.4,222.9,218.4,200,205.3z M294.1,410c-0.1,26.1-18.7,36.7-41.5,23.6c-0.1,0-0.1-0.1-0.2-0.1
			c-3.8-2.2-6.9-7.5-6.9-11.9v-0.3l0.1-39.1v-0.3c0-4.3,3.1-6.1,6.9-3.9l34.6,20c3.8,2.2,6.9,7.6,7,11.8
			C294.1,409.9,294.1,409.9,294.1,410z M294.1,383.4c0,4.6-3.2,6.4-7.2,4.1l-34.1-19.7c-4-2.3-7.2-7.9-7.2-12.4l0.1-39.1
			c0-4.6,3.2-6.4,7.2-4.1l34.1,19.7c4,2.3,7.2,7.9,7.2,12.4L294.1,383.4z M294.3,317.5c0,4.6-3.2,6.4-7.2,4.1L253,301.9
			c-4-2.3-7.2-7.9-7.2-12.4l0.1-39.1c0-4.6,3.2-6.4,7.2-4.1l34.1,19.7c4,2.3,7.2,7.9,7.2,12.4L294.3,317.5z M291.2,192l-34.1-19.7
			c-4-2.3-4-6-0.1-8.3l33.9-19.7c3.9-2.3,10.3-2.3,14.3,0l34.1,19.7c4,2.3,4,6,0,8.3L305.5,192C301.6,194.3,295.2,194.3,291.2,192z
			 M350.9,355.8c0,4.3-3.1,9.7-6.9,11.9c-0.1,0-0.1,0.1-0.2,0.1c-22.7,13-41,2.5-41-23.6c0-0.1,0-0.1,0-0.2c0-4.3,3.1-9.7,6.9-11.9
			l34.4-20c3.8-2.2,6.9-0.5,6.9,3.9L350.9,355.8z M351,289.5c-0.1,4.6-3.3,10.1-7.2,12.4l-33.9,19.7c-3.9,2.3-7.1,0.4-7.1-4.1
			l0.1-39.1c0.1-4.6,3.3-10.1,7.2-12.4l34-19.7c3.9-2.3,7.1-0.4,7,4.1L351,289.5z M349,225.2l-0.3-0.1l-34.1-19.7l-0.3-0.1
			c-3.9-2.2-3.9-5.8-0.1-8l0.3-0.1l33.8-19.7l0.3-0.1c3.8-2.2,10-2.2,13.8,0c0,0,0.1,0,0.2-0.1c22.8,13.3,22.9,34.6,0.4,47.8
			c-0.1,0-0.1,0.1-0.2,0.1C359,227.4,352.8,227.4,349,225.2z M407.8,388.2c-0.1,4.6-3.3,10.1-7.2,12.4l-33.9,19.7
			c-3.9,2.3-7.1,0.5-7.1-4.1l0.1-39.1c0.1-4.6,3.3-10.1,7.2-12.4l33.9-19.7c3.9-2.3,7.1-0.5,7.1,4.1L407.8,388.2z M408,322.2
			c-0.1,4.6-3.3,10.1-7.2,12.4l-33.9,19.7c-3.9,2.3-7.1,0.4-7.1-4.1l0.1-39.1c0.1-4.6,3.3-10.1,7.2-12.4L401,279
			c3.9-2.2,7.1-0.4,7.1,4.1L408,322.2z M465.3,249.7c-0.2,26.2-18.6,58.1-41.3,71.4c-0.1,0-0.1,0.1-0.2,0.1
			c-3.8,2.3-6.9,0.5-6.9-3.9V317l0.1-39.1v-0.3c0-4.3,3.1-9.7,6.9-11.9l34.4-20c3.8-2.2,6.9-0.4,7,3.8
			C465.3,249.6,465.3,249.6,465.3,249.7z M465.3,223.1c0,4.6-3.3,10.1-7.2,12.4l-33.9,19.7c-3.9,2.3-7.1,0.4-7.1-4.1l0.1-39.1
			c0.1-4.6,3.3-10.1,7.2-12.4l33.9-19.7c3.9-2.3,7.1-0.4,7.1,4.1L465.3,223.1z"/>
	</g>
</g>
</svg>
