<?xml version="1.0" encoding="utf-8"?>
<!-- Generator: Adobe Illustrator 21.0.0, SVG Export Plug-In . SVG Version: 6.00 Build 0)  -->
<svg version="1.1" id="Capa_1" xmlns="http://www.w3.org/2000/svg" xmlns:xlink="http://www.w3.org/1999/xlink" x="0px" y="0px"
	 viewBox="0 0 1632.2 533.2" style="enable-background:new 0 0 1632.2 533.2;" xml:space="preserve">
<style type="text/css">
	.st0{fill:#231F20;}
	.st1{fill:#2061BB;}
	.st2{fill:#EFEFEF;}
	.st3{fill:#FFCC05;}
</style>
<g>
	<g>
		<path class="st0" d="M606.4,230.9c0-0.4-0.1-0.7-0.2-1.2l-24.5-64.3c-0.3-0.7-0.7-1.3-1.2-1.7s-1.3-0.7-2.2-0.7h-6.8
			c-1,0-1.7,0.2-2.2,0.7c-0.5,0.4-0.9,1-1.2,1.7l-24.6,64.3c-0.1,0.4-0.1,0.8-0.1,1.1c0,0.6,0.2,1.1,0.7,1.6s1,0.7,1.6,0.7h5.1
			c0.9,0,1.5-0.2,2-0.7c0.4-0.4,0.7-0.8,0.8-1.2l5.4-13.9h32l5.4,13.9c0.1,0.4,0.4,0.7,0.8,1.2c0.4,0.4,1.1,0.7,1.9,0.7h5.1
			c0.6,0,1.1-0.2,1.6-0.7S606.4,231.5,606.4,230.9z M587.9,208.3h-26.1l13-34.3L587.9,208.3z"/>
		<path class="st0" d="M647.8,206.8c-2.5-1.5-6-2.6-10.4-3.5c-4-0.9-7.1-1.8-9.1-2.6s-3.4-1.6-4.1-2.6c-0.7-0.9-1-2-1-3.2
			c0-2,0.8-3.7,2.4-5.1c1.6-1.3,4.1-2,7.3-2c2.3,0,4.1,0.3,5.5,0.8s2.5,1.2,3.4,2.1c0.9,0.8,1.7,1.7,2.3,2.6
			c0.3,0.3,0.6,0.5,0.9,0.7c0.3,0.2,0.8,0.3,1.3,0.3h4.2c0.7,0,1.3-0.2,1.8-0.7s0.7-1.1,0.7-1.8c-0.1-0.9-0.5-2-1.3-3.3
			s-2-2.6-3.6-3.9c-1.6-1.3-3.7-2.4-6.1-3.3c-2.5-0.9-5.5-1.3-8.9-1.3c-4.3,0-7.9,0.7-10.7,2.2s-5,3.4-6.5,5.7s-2.2,4.7-2.2,7.2
			c0,2.4,0.5,4.6,1.5,6.5s2.7,3.6,5.1,5c2.3,1.4,5.5,2.5,9.5,3.5c3.9,0.9,7.1,1.7,9.4,2.5c2.2,0.8,3.8,1.7,4.7,2.6
			c0.8,0.9,1.3,2.2,1.3,3.8c0,2.4-1,4.2-3.2,5.5c-2.1,1.3-4.9,1.9-8.2,1.9c-2.3,0-4.2-0.3-5.7-0.9c-1.5-0.6-2.8-1.3-3.8-2.2
			c-1.1-0.9-2-1.8-2.9-2.8c-0.4-0.5-0.8-0.8-1-0.9c-0.3-0.1-0.6-0.2-0.9-0.2H615c-0.6,0-1.2,0.2-1.7,0.6c-0.6,0.5-0.9,1.1-0.8,1.9
			c0.1,0.8,0.5,1.9,1.4,3.3c0.8,1.3,2.1,2.7,3.8,4s3.9,2.5,6.5,3.4c2.7,0.9,5.9,1.4,9.6,1.4c4.6,0,8.6-0.7,11.8-2.1
			c3.2-1.4,5.7-3.3,7.3-5.6s2.4-5,2.4-7.8c0-2.5-0.5-4.8-1.6-6.8C652.2,210,650.3,208.2,647.8,206.8z"/>
		<path class="st0" d="M700,231.2c3.4-1.9,6-4.7,7.8-8.1c1.8-3.4,2.8-7.4,3-11.8c0.1-1.1,0.1-2.6,0.1-4.3s0-3.2-0.1-4.2
			c-0.2-4.5-1.2-8.4-3.1-11.8c-1.8-3.4-4.5-6.1-7.9-8s-7.7-2.9-12.6-2.9s-9.2,1-12.6,2.9c-3.4,1.9-6.1,4.6-7.9,8
			c-1.8,3.4-2.9,7.4-3.1,11.8c-0.1,1-0.1,2.5-0.1,4.2c0,1.8,0,3.2,0.1,4.3c0.2,4.4,1.2,8.3,3,11.8c1.8,3.4,4.4,6.2,7.8,8.1
			c3.4,1.9,7.7,2.9,12.7,2.9S696.6,233.2,700,231.2z M687.3,188.2c4,0,7.3,1.3,9.6,3.8c2.4,2.6,3.7,6.4,3.9,11.3
			c0.1,1,0.1,2.3,0.1,3.8s0,2.8-0.1,3.8c-0.2,4.9-1.5,8.8-3.9,11.3c-2.4,2.6-5.6,3.8-9.6,3.8s-7.3-1.3-9.7-3.8
			c-2.4-2.6-3.7-6.4-3.9-11.3c-0.1-1-0.1-2.2-0.1-3.8c0-1.5,0-2.8,0.1-3.8c0.1-4.9,1.4-8.7,3.9-11.3
			C680,189.5,683.3,188.2,687.3,188.2z"/>
		<path class="st0" d="M758.5,230.3c1.7-1.2,3.2-2.5,4.4-4s2-3,2.6-4.5c0.5-1.5,0.8-2.9,0.9-4.3c0.1-0.7-0.2-1.4-0.7-1.8
			c-0.5-0.5-1.1-0.7-1.9-0.7H759c-0.7,0-1.3,0.2-1.7,0.6c-0.4,0.4-0.7,0.9-1.1,1.7c-1.2,3.2-2.8,5.4-4.8,6.7s-4.5,1.9-7.5,1.9
			c-3.9,0-7.1-1.2-9.5-3.6c-2.4-2.4-3.8-6.3-3.9-11.7c-0.1-2.2-0.1-4.6,0-6.9c0.2-5.3,1.5-9.3,3.9-11.6c2.4-2.4,5.6-3.6,9.5-3.6
			c3,0,5.5,0.7,7.5,1.9c2,1.3,3.6,3.6,4.8,6.7c0.3,0.8,0.7,1.3,1.1,1.6c0.4,0.3,0.9,0.5,1.7,0.5h4.8c0.7,0,1.3-0.2,1.9-0.7
			c0.5-0.5,0.8-1.1,0.7-1.8c-0.1-1.7-0.6-3.6-1.5-5.6c-0.9-1.9-2.3-3.8-4.1-5.4c-1.8-1.7-4.1-3.1-6.9-4.1c-2.8-1.1-6.1-1.6-10-1.6
			c-4.7,0-8.9,0.9-12.3,2.8c-3.4,1.8-6.1,4.5-8,7.9s-2.9,7.6-3,12.4c-0.1,1-0.1,2.3-0.1,4s0,3,0.1,4c0.1,4.8,1.1,8.9,3,12.4
			c1.9,3.4,4.6,6.1,8,7.9c3.4,1.8,7.6,2.8,12.3,2.8c3.1,0,5.9-0.4,8.3-1.1C754.7,232.4,756.8,231.5,758.5,230.3z"/>
		<path class="st0" d="M780.2,181c-0.7,0-1.3,0.2-1.8,0.7s-0.7,1.1-0.7,1.8v47.1c0,0.7,0.2,1.3,0.7,1.8s1.1,0.7,1.8,0.7h4.8
			c0.7,0,1.3-0.2,1.8-0.7s0.7-1.1,0.7-1.8v-47.1c0-0.7-0.2-1.3-0.7-1.8s-1.1-0.7-1.8-0.7H780.2z"/>
		<path class="st0" d="M779.4,171.9h6.3c0.7,0,1.4-0.2,1.9-0.7s0.8-1.1,0.8-1.8V164c0-0.7-0.3-1.4-0.8-1.9s-1.1-0.8-1.9-0.8h-6.3
			c-0.7,0-1.3,0.3-1.8,0.8s-0.7,1.1-0.7,1.9v5.4c0,0.7,0.2,1.3,0.7,1.8C778.1,171.6,778.7,171.9,779.4,171.9z"/>
		<path class="st0" d="M816.4,234.2c3.2,0,5.9-0.4,8.1-1.2c2.2-0.8,4.1-1.7,5.5-2.9c1.2-1,2.3-2,3.1-3v3.5c0,0.7,0.2,1.3,0.7,1.8
			c0.4,0.5,1.1,0.7,1.9,0.7h4.6c0.7,0,1.3-0.2,1.8-0.7s0.7-1.1,0.7-1.8v-32.2c0-2.3-0.4-4.5-1.1-6.7c-0.7-2.2-1.9-4.2-3.4-6
			c-1.6-1.7-3.8-3.2-6.5-4.2s-6.1-1.6-10.1-1.6c-3.6,0-6.7,0.5-9.2,1.5s-4.6,2.2-6.2,3.6c-1.6,1.4-2.8,2.9-3.6,4.3
			c-0.8,1.5-1.2,2.8-1.2,3.8c0,0.7,0.2,1.2,0.6,1.7c0.4,0.5,1,0.7,1.8,0.7h4.5c1.1,0,1.9-0.6,2.3-1.6c0.7-1.8,2-3.3,3.8-4.5
			s4.2-1.7,7-1.7c4,0,6.9,0.9,8.7,2.6c1.8,1.7,2.7,4.2,2.7,7.3v2.7l-14.6,2.1c-6,0.9-10.9,2.7-14.6,5.4c-3.8,2.8-5.7,6.5-5.7,11.1
			c0,2.9,0.9,5.5,2.5,7.8c1.7,2.3,3.9,4.1,6.6,5.4C810,233.5,813.1,234.2,816.4,234.2z M832.9,207.6v2.5c0,3.6-0.6,6.7-1.9,9.1
			c-1.3,2.4-3,4.2-5.2,5.3s-4.7,1.7-7.3,1.7c-1.8,0-3.5-0.3-5.1-0.9c-1.6-0.6-3-1.5-4.1-2.7c-1-1.2-1.6-2.7-1.6-4.5
			c0-2.3,1.2-4.2,3.5-5.7s5.9-2.6,10.5-3.3L832.9,207.6z"/>
		<path class="st0" d="M877.7,234.2c3.1,0,5.9-0.4,8.3-1.1c2.4-0.7,4.5-1.6,6.2-2.8s3.2-2.5,4.4-4s2-3,2.6-4.5
			c0.5-1.5,0.8-2.9,0.9-4.3c0.1-0.7-0.2-1.4-0.7-1.8c-0.5-0.5-1.1-0.7-1.9-0.7h-4.8c-0.7,0-1.3,0.2-1.7,0.6
			c-0.4,0.4-0.7,0.9-1.1,1.7c-1.2,3.2-2.8,5.4-4.8,6.7s-4.5,1.9-7.5,1.9c-3.9,0-7.1-1.2-9.5-3.6c-2.4-2.4-3.8-6.3-3.9-11.7
			c-0.1-2.2-0.1-4.6,0-6.9c0.2-5.3,1.5-9.3,3.9-11.6c2.4-2.4,5.6-3.6,9.5-3.6c3,0,5.5,0.7,7.5,1.9c2,1.3,3.6,3.6,4.8,6.7
			c0.3,0.8,0.7,1.3,1.1,1.6c0.4,0.3,0.9,0.5,1.7,0.5h4.8c0.7,0,1.3-0.2,1.9-0.7c0.5-0.5,0.8-1.1,0.7-1.8c-0.1-1.7-0.6-3.6-1.5-5.6
			c-0.9-1.9-2.3-3.8-4.1-5.4c-1.8-1.7-4.1-3.1-6.9-4.1c-2.8-1.1-6.1-1.6-10-1.6c-4.7,0-8.9,0.9-12.3,2.8c-3.4,1.8-6.1,4.5-8,7.9
			s-2.9,7.6-3,12.4c-0.1,1-0.1,2.3-0.1,4s0,3,0.1,4c0.1,4.8,1.1,8.9,3,12.4c1.9,3.4,4.6,6.1,8,7.9
			C868.8,233.2,872.9,234.2,877.7,234.2z"/>
		<path class="st0" d="M919.4,171.9c0.7,0,1.4-0.2,1.9-0.7s0.8-1.1,0.8-1.8V164c0-0.7-0.3-1.4-0.8-1.9s-1.1-0.8-1.9-0.8h-6.3
			c-0.7,0-1.3,0.3-1.8,0.8s-0.7,1.1-0.7,1.9v5.4c0,0.7,0.2,1.3,0.7,1.8s1.1,0.7,1.8,0.7H919.4z"/>
		<path class="st0" d="M920.5,232.4c0.5-0.5,0.7-1.1,0.7-1.8v-47.1c0-0.7-0.2-1.3-0.7-1.8s-1.1-0.7-1.8-0.7h-4.8
			c-0.7,0-1.3,0.2-1.8,0.7s-0.7,1.1-0.7,1.8v47.1c0,0.7,0.2,1.3,0.7,1.8s1.1,0.7,1.8,0.7h4.8C919.4,233.2,920,232.9,920.5,232.4z"/>
		<path class="st0" d="M954.2,174.1h3.4c0.8,0,1.4-0.1,1.9-0.2c0.5-0.1,1-0.5,1.6-0.9l11.5-9.5c0.4-0.4,0.6-0.8,0.6-1.4
			c0-1.5-0.7-2.2-2.1-2.2h-6.8c-1,0-1.7,0.1-2.2,0.4c-0.5,0.3-1,0.8-1.7,1.5l-7.4,8.9c-0.4,0.4-0.6,0.9-0.6,1.5
			C952.4,173.4,953,174.1,954.2,174.1z"/>
		<path class="st0" d="M980.6,211.4c0.1-1.2,0.1-2.6,0.1-4.3s0-3.1-0.1-4.2c-0.2-4.5-1.2-8.4-3.1-11.8c-1.8-3.4-4.5-6.1-7.9-8
			s-7.7-2.9-12.6-2.9s-9.2,1-12.6,2.9c-3.4,1.9-6.1,4.6-7.9,8c-1.8,3.4-2.9,7.4-3.1,11.8c-0.1,1.1-0.1,2.4-0.1,4.2s0,3.2,0.1,4.3
			c0.2,4.4,1.2,8.3,3,11.8c1.8,3.4,4.4,6.2,7.8,8.1c3.4,1.9,7.7,2.9,12.7,2.9s9.3-1,12.7-2.9s6-4.7,7.8-8.1
			C979.4,219.7,980.4,215.8,980.6,211.4z M957,226c-4,0-7.3-1.3-9.7-3.8c-2.4-2.6-3.7-6.4-3.9-11.3c-0.1-1-0.1-2.2-0.1-3.8
			c0-1.5,0-2.8,0.1-3.8c0.1-4.9,1.4-8.7,3.9-11.3c2.4-2.6,5.7-3.8,9.7-3.8s7.3,1.3,9.6,3.8c2.4,2.6,3.7,6.4,3.9,11.3
			c0.1,1,0.1,2.2,0.1,3.8c0,1.5,0,2.8-0.1,3.8c-0.2,4.9-1.5,8.8-3.9,11.3C964.3,224.7,961,226,957,226z"/>
		<path class="st0" d="M1038.4,232.4c0.5-0.5,0.7-1.1,0.7-1.8v-28c0-4.4-0.8-8.4-2.4-11.8c-1.6-3.4-3.9-6-6.9-8
			c-3-1.9-6.8-2.9-11.1-2.9c-4.1,0-7.6,0.7-10.2,2.2c-2.4,1.3-4.5,3-6.1,5v-3.7c0-0.7-0.2-1.3-0.7-1.8s-1.1-0.7-1.8-0.7h-4.7
			c-0.7,0-1.3,0.2-1.8,0.7s-0.7,1.1-0.7,1.8v47.1c0,0.7,0.2,1.3,0.7,1.8s1.1,0.7,1.8,0.7h5c0.7,0,1.3-0.2,1.8-0.7s0.7-1.1,0.7-1.8
			V203c0-4.5,1.2-8.1,3.7-10.7c2.4-2.6,5.7-3.8,9.7-3.8c4.3,0,7.5,1.3,9.7,3.8c2.2,2.6,3.3,6.2,3.3,10.7v27.5c0,0.7,0.2,1.3,0.7,1.8
			s1.1,0.7,1.8,0.7h5C1037.3,233.2,1037.9,232.9,1038.4,232.4z"/>
		<path class="st0" d="M1119.4,231.1c4-2,7.1-5.1,9.3-9.2c2.2-4.1,3.3-9.4,3.3-15.9v-40.3c0-0.8-0.2-1.4-0.7-1.9s-1.1-0.7-1.8-0.7
			h-5.2c-0.7,0-1.3,0.2-1.8,0.7s-0.7,1.1-0.7,1.9v40.5c0,6.4-1.5,11.2-4.5,14.2s-7.1,4.6-12.3,4.6c-5.2,0-9.4-1.5-12.3-4.6
			c-3-3-4.5-7.8-4.5-14.2v-40.5c0-0.8-0.2-1.4-0.7-1.9s-1.1-0.7-1.9-0.7h-5.1c-0.8,0-1.4,0.2-1.9,0.7c-0.4,0.5-0.7,1.1-0.7,1.9V206
			c0,6.4,1.1,11.8,3.3,15.9c2.2,4.1,5.3,7.2,9.3,9.2s8.9,3,14.5,3C1110.5,234.2,1115.4,233.1,1119.4,231.1z"/>
		<path class="st0" d="M1174,181h-3.9c-3.3,0-6.2,0.6-8.6,1.7c-2.1,1-3.8,2.5-5.1,4.4v-3.5c0-0.7-0.3-1.4-0.8-1.9s-1.1-0.8-1.9-0.8
			h-4.6c-0.7,0-1.3,0.3-1.8,0.8s-0.7,1.1-0.7,1.9v47c0,0.7,0.2,1.3,0.7,1.8s1.1,0.7,1.8,0.7h4.9c0.7,0,1.4-0.2,1.9-0.7
			s0.8-1.1,0.8-1.8v-29.2c0-3.5,1-6.3,3-8.3s4.8-3.1,8.3-3.1h6c0.7,0,1.3-0.2,1.8-0.7c0.5-0.4,0.7-1,0.7-1.8v-4.1
			c0-0.7-0.2-1.3-0.7-1.8C1175.4,181.3,1174.7,181,1174,181z"/>
		<path class="st0" d="M1227.6,181h-5c-0.7,0-1.3,0.2-1.8,0.7s-0.7,1.1-0.7,1.8V211c0,4.5-1.2,8.1-3.7,10.7
			c-2.4,2.6-5.7,3.8-9.7,3.8c-8.5,0-12.7-4.8-12.7-14.5v-27.5c0-0.7-0.2-1.3-0.7-1.8s-1.1-0.7-1.8-0.7h-5c-0.7,0-1.3,0.2-1.8,0.7
			s-0.7,1.1-0.7,1.8v28c0,4.4,0.8,8.3,2.3,11.7s3.8,6.1,6.8,8s6.6,2.9,10.9,2.9c4.2,0,7.6-0.7,10.2-2.1c2.4-1.3,4.4-3,6.1-5.1v3.7
			c0,0.7,0.2,1.3,0.7,1.8s1.1,0.7,1.8,0.7h4.7c0.7,0,1.3-0.2,1.8-0.7c0.4-0.5,0.7-1.1,0.7-1.8v-47.1c0-0.7-0.2-1.3-0.7-1.8
			C1228.9,181.3,1228.3,181,1227.6,181z"/>
		<path class="st0" d="M1286.6,181h-4.6c-0.7,0-1.3,0.3-1.8,0.8s-0.7,1.1-0.7,1.9v3.5c-1.6-2-3.6-3.6-6-5c-2.6-1.5-6-2.2-10-2.2
			c-3.7,0-7,0.7-9.6,2c-2.7,1.3-4.9,3.1-6.6,5.4c-1.7,2.3-3,4.9-3.8,7.7s-1.3,5.9-1.4,9c-0.1,1.8-0.1,3.6,0,5.5
			c0.1,3.1,0.6,6.2,1.4,9c0.8,2.9,2.1,5.4,3.8,7.7c1.7,2.2,3.9,4,6.6,5.3s5.9,2,9.6,2c3.9,0,7.2-0.7,9.8-2.1
			c2.4-1.2,4.3-2.8,5.9-4.6v6c0,3.6-0.5,6.4-1.6,8.4s-2.6,3.4-4.7,4.3c-2.1,0.8-4.7,1.3-7.8,1.3c-2.9,0-5.2-0.4-6.8-1.3
			c-1.6-0.9-2.8-1.9-3.6-3.1c-0.8-1.2-1.4-2.3-1.8-3.3c-0.3-0.9-0.6-1.5-1.1-1.8c-0.4-0.3-1-0.4-1.6-0.4h-4.8
			c-0.7,0-1.3,0.3-1.8,0.8c-0.6,0.5-0.8,1.2-0.7,1.9c0.1,1,0.5,2.4,1.2,4.1c0.7,1.7,1.9,3.4,3.5,5.1c1.6,1.7,3.9,3.2,6.8,4.4
			s6.7,1.8,11.2,1.8c5.8,0,10.4-1,13.9-3c3.4-2,5.9-4.8,7.5-8.3c1.5-3.5,2.3-7.5,2.3-11.9v-48.2c0-0.7-0.3-1.4-0.8-1.9
			C1288,181.3,1287.4,181,1286.6,181z M1279.3,206.8c0,1.3,0,2.5-0.1,3.4c-0.1,2.3-0.6,4.7-1.5,7s-2.4,4.2-4.4,5.7s-4.6,2.2-7.8,2.2
			s-5.9-0.7-7.8-2.2s-3.3-3.4-4.2-5.7c-0.8-2.4-1.3-5-1.5-7.7c-0.1-1.8-0.1-3.5,0-5.2c0.1-2.7,0.6-5.3,1.5-7.7
			c0.8-2.4,2.2-4.3,4.2-5.7c1.9-1.5,4.6-2.2,7.8-2.2c3.2,0,5.9,0.8,7.8,2.2c2,1.5,3.4,3.4,4.4,5.7c0.9,2.3,1.5,4.6,1.5,7
			C1279.3,204.4,1279.3,205.5,1279.3,206.8z"/>
		<path class="st0" d="M1346.6,181h-5c-0.7,0-1.3,0.2-1.8,0.7s-0.7,1.1-0.7,1.8V211c0,4.5-1.2,8.1-3.7,10.7
			c-2.4,2.6-5.7,3.8-9.7,3.8c-8.5,0-12.7-4.8-12.7-14.5v-27.5c0-0.7-0.2-1.3-0.7-1.8s-1.1-0.7-1.8-0.7h-5c-0.7,0-1.3,0.2-1.8,0.7
			s-0.7,1.1-0.7,1.8v28c0,4.4,0.8,8.3,2.3,11.7s3.8,6.1,6.8,8s6.6,2.9,10.9,2.9c4.2,0,7.6-0.7,10.2-2.1c2.4-1.3,4.4-3,6.1-5.1v3.7
			c0,0.7,0.2,1.3,0.7,1.8s1.1,0.7,1.8,0.7h4.7c0.7,0,1.3-0.2,1.8-0.7c0.4-0.5,0.7-1.1,0.7-1.8v-47.1c0-0.7-0.2-1.3-0.7-1.8
			C1348,181.3,1347.4,181,1346.6,181z"/>
		<path class="st0" d="M1399.9,185.8c-1.6-1.7-3.8-3.2-6.5-4.2s-6.1-1.6-10.1-1.6c-3.6,0-6.7,0.5-9.2,1.5s-4.6,2.2-6.2,3.6
			c-1.6,1.4-2.8,2.9-3.6,4.3c-0.8,1.5-1.2,2.8-1.2,3.8c0,0.7,0.2,1.2,0.6,1.7s1,0.7,1.8,0.7h4.5c1.1,0,1.9-0.6,2.3-1.6
			c0.7-1.8,2-3.3,3.8-4.5s4.2-1.7,7-1.7c4,0,6.9,0.9,8.7,2.6c1.8,1.7,2.7,4.2,2.7,7.3v2.7l-14.6,2.1c-6,0.9-10.9,2.7-14.6,5.4
			c-3.8,2.8-5.7,6.5-5.7,11.1c0,2.9,0.9,5.5,2.5,7.8c1.7,2.3,3.9,4.1,6.6,5.4c2.7,1.3,5.8,2,9.1,2c3.2,0,5.9-0.4,8.1-1.2
			s4.1-1.7,5.5-2.9c1.2-1,2.3-2,3.1-3v3.5c0,0.7,0.2,1.3,0.7,1.8c0.4,0.5,1.1,0.7,1.9,0.7h4.6c0.7,0,1.3-0.2,1.8-0.7
			s0.7-1.1,0.7-1.8v-32.2c0-2.3-0.4-4.5-1.1-6.7C1402.6,189.5,1401.5,187.5,1399.9,185.8z M1394.5,207.6v2.5c0,3.6-0.6,6.7-1.9,9.1
			c-1.3,2.4-3,4.2-5.2,5.3s-4.7,1.7-7.3,1.7c-1.8,0-3.5-0.3-5.1-0.9c-1.6-0.6-3-1.5-4.1-2.7c-1-1.2-1.6-2.7-1.6-4.5
			c0-2.3,1.2-4.2,3.5-5.7s5.9-2.6,10.5-3.3L1394.5,207.6z"/>
		<path class="st0" d="M1460.1,181h-4.7c-0.8,0-1.4,0.2-1.8,0.6c-0.4,0.4-0.7,0.8-0.9,1.3l-15.3,35.6l-14.9-35.6
			c-0.1-0.5-0.4-0.9-0.8-1.3c-0.4-0.4-1-0.6-1.8-0.6h-4.9c-0.7,0-1.2,0.2-1.7,0.7c-0.4,0.4-0.7,1-0.7,1.7c0,0.4,0.2,1,0.5,1.8
			l18.9,44.7l-7.6,18.1c-0.2,0.4-0.3,0.8-0.4,1c-0.1,0.3-0.1,0.6-0.1,0.9c0,0.6,0.2,1.1,0.7,1.6c0.4,0.4,1,0.7,1.6,0.7h4.7
			c0.8,0,1.4-0.2,1.8-0.6c0.4-0.4,0.7-0.8,0.9-1.3l28.2-65.1c0.3-0.9,0.5-1.5,0.5-1.9c0-0.6-0.2-1.1-0.7-1.6
			C1461.4,181.2,1460.8,181,1460.1,181z"/>
		<path class="st0" d="M1510,191.7c-0.7-2.2-1.9-4.2-3.4-6c-1.6-1.7-3.8-3.2-6.5-4.2s-6.1-1.6-10.1-1.6c-3.6,0-6.7,0.5-9.2,1.5
			s-4.6,2.2-6.2,3.6c-1.6,1.4-2.8,2.9-3.6,4.3c-0.8,1.5-1.2,2.8-1.2,3.8c0,0.7,0.2,1.2,0.6,1.7s1,0.7,1.8,0.7h4.5
			c1.1,0,1.9-0.6,2.3-1.6c0.7-1.8,2-3.3,3.8-4.5s4.2-1.7,7-1.7c4,0,6.9,0.9,8.7,2.6c1.8,1.7,2.7,4.2,2.7,7.3v2.7l-14.6,2.1
			c-6,0.9-10.9,2.7-14.6,5.4c-3.8,2.8-5.7,6.5-5.7,11.1c0,2.9,0.9,5.5,2.5,7.8c1.7,2.3,3.9,4.1,6.6,5.4c2.7,1.3,5.8,2,9.1,2
			c3.2,0,5.9-0.4,8.1-1.2s4.1-1.7,5.5-2.9c1.2-1,2.3-2,3.1-3v3.5c0,0.7,0.2,1.3,0.7,1.8c0.4,0.5,1.1,0.7,1.9,0.7h4.6
			c0.7,0,1.3-0.2,1.8-0.7s0.7-1.1,0.7-1.8v-32.2C1511,196.2,1510.7,193.9,1510,191.7z M1501.2,207.6v2.5c0,3.7-0.6,6.7-1.9,9.1
			c-1.3,2.4-3,4.2-5.2,5.3s-4.7,1.7-7.3,1.7c-1.8,0-3.5-0.3-5.1-0.9c-1.6-0.6-3-1.5-4.1-2.7c-1-1.2-1.6-2.7-1.6-4.5
			c0-2.3,1.2-4.2,3.5-5.7s5.9-2.6,10.5-3.3L1501.2,207.6z"/>
		<path class="st0" d="M590.9,281.3h-4.8c-0.7,0-1.3,0.2-1.8,0.7s-0.7,1.1-0.7,1.8V306c-1.6-1.8-3.6-3.4-6-4.7
			c-2.6-1.4-5.9-2.1-9.9-2.1c-3.7,0-6.9,0.7-9.5,2c-2.7,1.3-4.9,3.1-6.6,5.4c-1.7,2.3-3,4.9-3.8,7.7c-0.8,2.9-1.3,5.9-1.4,9
			c-0.1,1-0.1,2.1-0.1,3s0,2,0.1,3c0.1,3.2,0.6,6.2,1.4,9.1c0.8,2.9,2.1,5.4,3.8,7.7c1.7,2.2,3.9,4,6.6,5.3c2.7,1.3,5.9,2,9.5,2
			c4,0,7.4-0.7,10-2.2c2.4-1.3,4.5-2.9,6.1-4.8v3.5c0,0.7,0.2,1.3,0.7,1.8c0.4,0.5,1.1,0.7,1.9,0.7h4.5c0.7,0,1.3-0.2,1.8-0.7
			s0.7-1.1,0.7-1.8V284c0-0.7-0.2-1.3-0.7-1.8C592.3,281.6,591.7,281.3,590.9,281.3z M583.7,325.9c0,1.5,0,2.7-0.1,3.8
			c-0.1,2.4-0.6,4.8-1.6,7.1c-1,2.3-2.4,4.2-4.4,5.7c-1.9,1.5-4.6,2.2-7.8,2.2c-3.3,0-6-0.7-7.9-2.2s-3.3-3.4-4.2-5.7
			c-0.8-2.4-1.3-5-1.5-7.7c-0.1-1.9-0.1-3.8,0-5.7c0.1-2.7,0.6-5.3,1.5-7.7c0.8-2.4,2.2-4.3,4.2-5.7c1.9-1.5,4.6-2.2,7.9-2.2
			c3.1,0,5.7,0.7,7.6,2.1c2,1.4,3.5,3.3,4.5,5.5s1.6,4.5,1.6,6.8C583.7,323.2,583.7,324.5,583.7,325.9z"/>
		<path class="st0" d="M641.4,302.4c-3.4-2.1-7.7-3.2-12.8-3.2c-4.5,0-8.5,1-11.9,2.9s-6.1,4.7-8,8.3c-1.9,3.6-3,7.8-3.3,12.5
			c-0.1,0.9-0.1,2-0.1,3.3c0,1.4,0,2.5,0.1,3.3c0.4,7.3,2.7,13.2,6.7,17.4c4.1,4.2,9.6,6.4,16.6,6.4c3.4,0,6.5-0.5,9.2-1.4
			s5-2.1,6.8-3.5s3.3-2.8,4.3-4.3s1.6-2.7,1.6-3.7c0.1-0.7-0.1-1.3-0.6-1.8c-0.5-0.4-1-0.6-1.7-0.6h-4.9c-0.8,0-1.3,0.1-1.7,0.3
			c-0.4,0.2-0.9,0.7-1.5,1.5c-0.3,0.5-1,1.2-1.9,2.1c-1,0.9-2.3,1.7-3.8,2.4c-1.5,0.7-3.5,1.1-5.9,1.1c-2.6,0-5-0.7-7-2.1
			s-3.5-3.3-4.5-5.6c-1-2.3-1.6-4.8-1.8-7.5v-0.6h34.1c0.7,0,1.3-0.2,1.8-0.7c0.5-0.4,0.7-1.1,0.7-1.9v-1.7c0-5.2-0.9-9.9-2.7-13.8
			C647.5,307.6,644.8,304.6,641.4,302.4z M621.4,308.9c2-1.3,4.4-2,7.2-2s5.2,0.7,7.2,2s3.6,3.1,4.6,5.4c1.1,2.3,1.6,4.9,1.6,7.8
			l0,0h-26.7l0,0c0-2.9,0.5-5.6,1.6-7.8C617.9,312.1,619.5,310.3,621.4,308.9z"/>
		<path class="st0" d="M728.2,317.8c-3.4-1.6-7.8-3.2-13-4.6c-4.3-1.2-7.9-2.4-10.6-3.6c-2.7-1.1-4.6-2.4-5.9-3.9
			c-1.2-1.4-1.8-3.3-1.8-5.4c0-3.4,1.3-5.9,3.9-7.5c2.6-1.6,6.1-2.4,10.3-2.4s7.6,0.9,10.2,2.7c2.6,1.8,4.1,4.1,4.5,6.7
			c0.3,0.8,0.7,1.3,1.3,1.6c0.5,0.3,1.1,0.4,1.6,0.4h5.3c0.8,0,1.4-0.3,1.8-0.7c0.4-0.5,0.5-1,0.5-1.5c-0.1-2-0.6-4.1-1.7-6.2
			c-1.1-2.1-2.7-4.1-4.7-5.9c-2.1-1.8-4.7-3.3-7.8-4.4s-6.7-1.7-10.9-1.7c-5.1,0-9.6,0.8-13.2,2.5c-3.7,1.7-6.5,4-8.4,6.8
			s-2.9,6.1-2.9,9.7c0,3.8,0.8,7,2.4,9.5c1.6,2.5,4,4.6,7.2,6.2c3.2,1.7,7.2,3.2,12.1,4.6c4.6,1.3,8.4,2.6,11.3,3.7
			c2.9,1.1,5,2.4,6.4,3.8s2.1,3.2,2.1,5.4c0,3.3-1.3,5.9-3.9,7.9c-2.6,2-6.8,3-12.4,3c-3.7,0-6.7-0.5-9-1.5s-4.1-2.3-5.3-3.8
			s-2-3.1-2.4-4.6c-0.1-0.6-0.4-1.1-0.9-1.5c-0.4-0.4-1.1-0.7-2-0.7H687c-0.7,0-1.2,0.2-1.7,0.7s-0.7,1-0.7,1.6
			c0.1,3.1,1.3,6.2,3.4,9c2.1,2.8,5.2,5.2,9.1,7c3.9,1.8,8.8,2.7,14.6,2.7c5.4,0,10.1-0.8,14-2.4c4-1.6,7.1-3.9,9.3-6.8
			c2.2-3,3.3-6.6,3.3-10.8c0-3.8-0.8-7-2.5-9.4C734.2,321.5,731.6,319.4,728.2,317.8z"/>
		<path class="st0" d="M795.3,313.9c-0.9-2.8-2.2-5.3-3.9-7.5s-3.9-4-6.5-5.2c-2.6-1.3-5.9-1.9-9.6-1.9c-4,0-7.4,0.7-10.1,2.2
			c-2.4,1.3-4.4,3-6,4.9v-3.6c0-0.7-0.2-1.3-0.7-1.8s-1.1-0.7-1.8-0.7h-4.6c-0.7,0-1.3,0.2-1.8,0.7s-0.7,1.1-0.7,1.8v65.9
			c0,0.7,0.2,1.3,0.7,1.8s1.1,0.7,1.8,0.7h4.9c0.7,0,1.3-0.2,1.8-0.7c0.4-0.5,0.7-1.1,0.7-1.8v-22.3c1.6,1.9,3.6,3.5,6,4.8
			c2.6,1.4,5.9,2.2,9.8,2.2c3.7,0,7-0.7,9.6-2s4.8-3.1,6.5-5.2c1.7-2.2,3-4.7,3.9-7.5s1.4-5.8,1.5-8.9c0.1-1.1,0.1-2.2,0.1-3.4
			c0-1.2,0-2.3-0.1-3.4C796.6,319.7,796.1,316.7,795.3,313.9z M786.7,329.1c-0.1,2.7-0.6,5.3-1.5,7.7c-0.8,2.4-2.2,4.3-4.1,5.7
			c-1.9,1.4-4.6,2.2-7.9,2.2c-3,0-5.6-0.7-7.6-2.1s-3.5-3.3-4.5-5.5s-1.6-4.5-1.6-6.8c-0.1-1.1-0.1-2.4-0.1-3.9s0-2.7,0.1-3.8
			c0.1-2.4,0.7-4.8,1.6-7.1c0.9-2.3,2.4-4.2,4.4-5.7s4.6-2.2,7.7-2.2c3.4,0,6,0.7,7.9,2.2s3.3,3.4,4.1,5.7c0.8,2.4,1.3,5,1.5,7.7
			C786.8,325.3,786.8,327.2,786.7,329.1z"/>
		<path class="st0" d="M842.3,302.4c-3.4-2.1-7.7-3.2-12.8-3.2c-4.5,0-8.5,1-11.9,2.9s-6.1,4.7-8,8.3c-1.9,3.6-3,7.8-3.3,12.5
			c-0.1,0.9-0.1,2-0.1,3.3c0,1.4,0,2.5,0.1,3.3c0.4,7.3,2.7,13.2,6.7,17.4c4.1,4.2,9.6,6.4,16.6,6.4c3.4,0,6.5-0.5,9.2-1.4
			s5-2.1,6.8-3.5s3.3-2.8,4.3-4.3s1.6-2.7,1.6-3.7c0.1-0.7-0.1-1.3-0.6-1.8c-0.5-0.4-1-0.6-1.7-0.6h-4.9c-0.8,0-1.3,0.1-1.7,0.3
			s-0.9,0.7-1.5,1.5c-0.3,0.5-1,1.2-1.9,2.1c-1,0.9-2.3,1.7-3.8,2.4c-1.5,0.7-3.5,1.1-5.9,1.1c-2.6,0-5-0.7-7-2.1s-3.5-3.3-4.5-5.6
			c-1-2.3-1.6-4.8-1.8-7.5v-0.6h34.1c0.7,0,1.3-0.2,1.8-0.7c0.5-0.4,0.7-1.1,0.7-1.9v-1.7c0-5.2-0.9-9.9-2.7-13.8
			C848.4,307.6,845.7,304.6,842.3,302.4z M822.3,308.9c2-1.3,4.4-2,7.2-2s5.2,0.7,7.2,2s3.6,3.1,4.6,5.4c1.1,2.3,1.6,4.9,1.6,7.8
			l0,0h-26.7l0,0c0-2.9,0.5-5.6,1.6-7.8C818.8,312.1,820.4,310.3,822.3,308.9z"/>
		<path class="st0" d="M897.9,302.4c-3.4-2.1-7.7-3.2-12.8-3.2c-4.5,0-8.5,1-11.9,2.9s-6.1,4.7-8,8.3c-1.9,3.6-3,7.8-3.3,12.5
			c-0.1,0.9-0.1,2-0.1,3.3c0,1.4,0,2.5,0.1,3.3c0.4,7.3,2.7,13.2,6.7,17.4c4.1,4.2,9.6,6.4,16.6,6.4c3.4,0,6.5-0.5,9.2-1.4
			s5-2.1,6.8-3.5s3.3-2.8,4.3-4.3s1.6-2.7,1.6-3.7c0.1-0.7-0.1-1.3-0.6-1.8c-0.5-0.4-1-0.6-1.7-0.6h-4.9c-0.8,0-1.3,0.1-1.7,0.3
			s-0.9,0.7-1.5,1.5c-0.3,0.5-1,1.2-1.9,2.1c-1,0.9-2.3,1.7-3.8,2.4c-1.5,0.7-3.5,1.1-5.9,1.1c-2.6,0-5-0.7-7-2.1s-3.5-3.3-4.5-5.6
			c-1-2.3-1.6-4.8-1.8-7.5v-0.6H906c0.7,0,1.3-0.2,1.8-0.7c0.5-0.4,0.7-1.1,0.7-1.9v-1.7c0-5.2-0.9-9.9-2.7-13.8
			C904,307.6,901.3,304.6,897.9,302.4z M878,308.9c2-1.3,4.4-2,7.2-2s5.2,0.7,7.2,2s3.6,3.1,4.6,5.4c1.1,2.3,1.6,4.9,1.6,7.8l0,0
			h-26.7l0,0c0-2.9,0.5-5.6,1.6-7.8C874.5,312.1,876,310.3,878,308.9z"/>
		<path class="st0" d="M962.2,281.3h-4.8c-0.7,0-1.3,0.2-1.8,0.7s-0.7,1.1-0.7,1.8V306c-1.6-1.8-3.6-3.4-6-4.7
			c-2.6-1.4-5.9-2.1-9.9-2.1c-3.7,0-6.9,0.7-9.5,2c-2.7,1.3-4.9,3.1-6.6,5.4c-1.7,2.3-3,4.9-3.8,7.7c-0.8,2.8-1.3,5.9-1.4,9
			c-0.1,1.1-0.1,2.1-0.1,3s0,1.9,0.1,3c0.1,3.2,0.6,6.3,1.4,9.1c0.8,2.9,2.1,5.4,3.8,7.7c1.7,2.2,3.9,4,6.6,5.3c2.7,1.3,5.9,2,9.5,2
			c4,0,7.4-0.7,10-2.2c2.4-1.3,4.5-2.9,6.1-4.8v3.5c0,0.7,0.2,1.3,0.7,1.8c0.4,0.5,1.1,0.7,1.9,0.7h4.5c0.7,0,1.3-0.2,1.8-0.7
			s0.7-1.1,0.7-1.8V284c0-0.7-0.2-1.3-0.7-1.8C963.5,281.6,962.9,281.3,962.2,281.3z M955,325.9c0,1.4,0,2.7-0.1,3.8
			c-0.1,2.4-0.6,4.8-1.6,7.1c-1,2.3-2.4,4.2-4.4,5.7c-1.9,1.5-4.6,2.2-7.8,2.2c-3.3,0-6-0.7-7.9-2.2s-3.3-3.4-4.2-5.7
			c-0.9-2.4-1.3-5-1.5-7.7c-0.1-1.9-0.1-3.8,0-5.7c0.1-2.7,0.6-5.3,1.5-7.7c0.8-2.4,2.2-4.3,4.2-5.7c1.9-1.5,4.6-2.2,7.9-2.2
			c3.1,0,5.7,0.7,7.7,2.1s3.5,3.3,4.5,5.5s1.6,4.5,1.6,6.8C955,323.2,955,324.5,955,325.9z"/>
		<path class="st0" d="M990.7,311.2c2.4-2.4,5.6-3.6,9.5-3.6c3,0,5.5,0.7,7.5,1.9c2,1.3,3.6,3.6,4.8,6.7c0.3,0.8,0.7,1.3,1.1,1.6
			c0.4,0.3,0.9,0.5,1.7,0.5h4.8c0.7,0,1.3-0.2,1.9-0.7c0.5-0.5,0.8-1.1,0.7-1.8c-0.1-1.7-0.6-3.6-1.5-5.6c-0.9-1.9-2.3-3.8-4.1-5.4
			c-1.8-1.7-4.1-3.1-6.9-4.1c-2.8-1.1-6.1-1.6-10-1.6c-4.7,0-8.9,0.9-12.3,2.8c-3.4,1.8-6.1,4.5-8,7.9s-2.9,7.6-3,12.4
			c-0.1,1-0.1,2.3-0.1,4s0,3,0.1,4c0.1,4.8,1.1,8.9,3,12.4c1.9,3.4,4.6,6.1,8,7.9s7.6,2.8,12.3,2.8c3.1,0,5.9-0.4,8.3-1.1
			c2.4-0.7,4.5-1.6,6.2-2.8c1.7-1.2,3.2-2.5,4.4-4s2-3,2.6-4.5c0.5-1.5,0.8-2.9,0.9-4.3c0.1-0.7-0.2-1.4-0.7-1.8
			c-0.5-0.5-1.1-0.7-1.9-0.7h-4.8c-0.7,0-1.3,0.2-1.7,0.6s-0.7,0.9-1,1.7c-1.2,3.2-2.8,5.4-4.8,6.7c-2,1.3-4.5,1.9-7.5,1.9
			c-3.9,0-7.1-1.2-9.5-3.6s-3.8-6.3-3.9-11.7c-0.1-2.2-0.1-4.6,0-6.9C987,317.5,988.3,313.5,990.7,311.2z"/>
		<path class="st0" d="M1076.9,300.2h-5c-0.7,0-1.3,0.2-1.8,0.7s-0.7,1.1-0.7,1.8v27.5c0,4.5-1.2,8.1-3.7,10.7
			c-2.4,2.6-5.7,3.8-9.7,3.8c-8.5,0-12.7-4.8-12.7-14.5v-27.5c0-0.7-0.2-1.3-0.7-1.8s-1.1-0.7-1.8-0.7h-5c-0.7,0-1.3,0.2-1.8,0.7
			s-0.7,1.1-0.7,1.8v28c0,4.4,0.8,8.3,2.3,11.7c1.5,3.4,3.8,6.1,6.8,8s6.6,2.9,10.9,2.9c4.2,0,7.6-0.7,10.2-2.1
			c2.4-1.3,4.4-3,6.1-5.1v3.7c0,0.7,0.2,1.3,0.7,1.8s1.1,0.7,1.8,0.7h4.7c0.7,0,1.3-0.2,1.8-0.7c0.4-0.5,0.7-1.1,0.7-1.8v-47.1
			c0-0.7-0.2-1.3-0.7-1.8C1078.2,300.4,1077.6,300.2,1076.9,300.2z"/>
		<path class="st0" d="M1139.4,314.3c-0.9-2.9-2.2-5.5-3.9-7.7c-1.7-2.3-3.9-4.1-6.5-5.4s-5.9-2-9.6-2c-3.9,0-7.2,0.7-9.8,2.1
			c-2.4,1.3-4.4,2.9-6,4.7v-22.2c0-0.7-0.2-1.3-0.7-1.8c-0.4-0.5-1-0.7-1.8-0.7h-4.9c-0.7,0-1.3,0.2-1.8,0.7s-0.7,1.1-0.7,1.8v65.9
			c0,0.7,0.2,1.3,0.7,1.8s1.1,0.7,1.8,0.7h4.6c0.7,0,1.3-0.2,1.8-0.7s0.7-1.1,0.7-1.8v-3.4c1.6,1.9,3.6,3.5,6,4.8
			c2.7,1.4,6.1,2.2,10,2.2c3.7,0,7-0.7,9.6-2s4.8-3.1,6.5-5.3c1.7-2.2,3-4.8,3.9-7.7c0.9-2.9,1.4-5.9,1.5-9.1c0.1-1.1,0.1-2.1,0.1-3
			s0-1.9-0.1-3C1140.8,320.2,1140.3,317.1,1139.4,314.3z M1130.9,329.1c-0.1,2.7-0.6,5.3-1.5,7.7c-0.8,2.4-2.2,4.3-4.1,5.7
			c-1.9,1.4-4.6,2.2-7.9,2.2c-3.2,0-5.8-0.8-7.7-2.2c-2-1.5-3.5-3.4-4.4-5.7c-0.9-2.3-1.5-4.7-1.6-7.1c-0.1-1-0.1-2.3-0.1-3.8
			s0-2.8,0.1-3.8c0.1-2.3,0.6-4.5,1.6-6.8c1-2.2,2.5-4,4.5-5.5c2-1.4,4.6-2.1,7.6-2.1c3.4,0,6,0.7,7.9,2.2s3.3,3.4,4.1,5.7
			c0.8,2.4,1.3,5,1.5,7.7C1130.9,325.3,1130.9,327.2,1130.9,329.1z"/>
		<path class="st0" d="M1160,300.2h-4.8c-0.7,0-1.3,0.2-1.8,0.7s-0.7,1.1-0.7,1.8v47.1c0,0.7,0.2,1.3,0.7,1.8s1.1,0.7,1.8,0.7h4.8
			c0.7,0,1.3-0.2,1.8-0.7s0.7-1.1,0.7-1.8v-47.1c0-0.7-0.2-1.3-0.7-1.8C1161.4,300.4,1160.7,300.2,1160,300.2z"/>
		<path class="st0" d="M1160.7,280.5h-6.3c-0.7,0-1.3,0.3-1.8,0.8s-0.7,1.1-0.7,1.9v5.4c0,0.7,0.2,1.3,0.7,1.8s1.1,0.7,1.8,0.7h6.3
			c0.7,0,1.4-0.2,1.9-0.7s0.8-1.1,0.8-1.8v-5.4c0-0.7-0.3-1.4-0.8-1.9S1161.4,280.5,1160.7,280.5z"/>
		<path class="st0" d="M1214.8,302.1c-3-1.9-6.8-2.9-11.1-2.9c-4.1,0-7.6,0.7-10.2,2.2c-2.4,1.3-4.5,3-6.1,5v-3.7
			c0-0.7-0.2-1.3-0.7-1.8s-1.1-0.7-1.8-0.7h-4.7c-0.7,0-1.3,0.2-1.8,0.7s-0.7,1.1-0.7,1.8v47.1c0,0.7,0.2,1.3,0.7,1.8
			s1.1,0.7,1.8,0.7h5c0.7,0,1.3-0.2,1.8-0.7s0.7-1.1,0.7-1.8v-27.5c0-4.5,1.2-8.1,3.7-10.7c2.4-2.6,5.7-3.8,9.7-3.8
			c4.3,0,7.5,1.3,9.7,3.8c2.2,2.6,3.3,6.2,3.3,10.7v27.5c0,0.7,0.2,1.3,0.7,1.8s1.1,0.7,1.8,0.7h5c0.7,0,1.3-0.2,1.8-0.7
			s0.7-1.1,0.7-1.8v-28c0-4.4-0.8-8.4-2.4-11.8C1220.2,306.7,1217.9,304,1214.8,302.1z"/>
		<path class="st0" d="M1280.2,300.2h-4.6c-0.7,0-1.3,0.3-1.8,0.8s-0.7,1.1-0.7,1.9v3.5c-1.6-2-3.6-3.6-6-5c-2.6-1.5-6-2.2-10-2.2
			c-3.7,0-7,0.7-9.6,2c-2.7,1.3-4.9,3.1-6.6,5.4s-3,4.9-3.8,7.7c-0.8,2.9-1.3,5.9-1.4,9c-0.1,1.8-0.1,3.6,0,5.5
			c0.1,3.1,0.6,6.1,1.4,9s2.1,5.4,3.8,7.7c1.7,2.2,3.9,4,6.6,5.3s5.9,2,9.6,2c3.9,0,7.2-0.7,9.8-2.1c2.4-1.2,4.3-2.8,5.9-4.6v6
			c0,3.6-0.5,6.4-1.6,8.4s-2.6,3.4-4.7,4.3c-2.1,0.8-4.7,1.3-7.8,1.3c-2.9,0-5.2-0.4-6.8-1.3c-1.6-0.9-2.8-1.9-3.6-3.1
			c-0.8-1.2-1.4-2.3-1.8-3.3c-0.3-0.9-0.6-1.5-1.1-1.8c-0.4-0.3-1-0.4-1.6-0.4h-4.8c-0.7,0-1.3,0.3-1.8,0.8
			c-0.6,0.5-0.8,1.2-0.7,1.9c0.1,1,0.4,2.4,1.2,4.1c0.7,1.7,1.9,3.4,3.5,5.1s3.9,3.2,6.8,4.4c2.9,1.2,6.7,1.8,11.2,1.8
			c5.8,0,10.4-1,13.9-3c3.4-2,5.9-4.8,7.5-8.3c1.5-3.5,2.3-7.5,2.3-11.9v-48.2c0-0.7-0.3-1.4-0.8-1.9
			C1281.5,300.5,1280.9,300.2,1280.2,300.2z M1272.9,326c0,1.3,0,2.5-0.1,3.4c-0.1,2.3-0.6,4.7-1.5,7s-2.4,4.2-4.4,5.7
			s-4.6,2.2-7.8,2.2s-5.9-0.7-7.8-2.2s-3.3-3.4-4.2-5.7c-0.8-2.4-1.3-5-1.5-7.7c-0.1-1.8-0.1-3.5,0-5.2c0.1-2.7,0.6-5.3,1.5-7.7
			c0.8-2.4,2.2-4.3,4.2-5.7c1.9-1.5,4.6-2.2,7.8-2.2c3.2,0,5.9,0.8,7.8,2.2c2,1.5,3.4,3.4,4.4,5.7c0.9,2.3,1.5,4.6,1.5,7
			C1272.9,323.5,1272.9,324.7,1272.9,326z"/>
	</g>
	<g>
		<path class="st0" d="M298.1,467.2c-4.3,0-8.5-1.1-12.3-3.3l-152.4-88c-7.6-4.4-12.3-12.6-12.3-21.4l0.5-175.1
			c0-8.7,4.7-16.8,12.3-21.2l151.4-88c7.6-4.4,17.1-4.4,24.7,0l152.4,88c7.6,4.4,12.3,12.6,12.3,21.4l-0.5,175.1
			c0,8.7-4.7,16.8-12.3,21.2l-151.4,88C306.7,466.1,302.4,467.2,298.1,467.2z"/>
		<path class="st1" d="M457.9,311.8L424,331.5c-3.9,2.3-7.1,7.8-7.2,12.4l-0.1,39.1c0,4.6,3.2,6.4,7.1,4.1l33.9-19.7
			c3.9-2.3,7.2-7.8,7.2-12.4l0.1-39.1C465,311.3,461.8,309.5,457.9,311.8"/>
		<path class="st2" d="M400.8,345l-33.9,19.7c-3.9,2.3-7.1,7.8-7.2,12.4l-0.1,39.1c0,4.6,3.2,6.4,7.1,4.1l33.9-19.7
			c3.9-2.3,7.1-7.8,7.2-12.4l0.1-39.1C407.9,344.5,404.7,342.7,400.8,345"/>
		<path class="st1" d="M343.7,378.1l-33.9,19.7c-3.9,2.3-7.1,7.8-7.2,12.4l-0.1,39.1c0,4.6,3.2,6.4,7.1,4.1l33.9-19.7
			c3.9-2.3,7.1-7.8,7.2-12.4l0.1-39.1C350.8,377.7,347.6,375.9,343.7,378.1"/>
		<path class="st1" d="M465.2,249.8c-0.2,26.2-18.6,58.1-41.3,71.4h0.1l33.9-19.7c3.9-2.3,7.2-7.8,7.2-12.4L465.2,249.8
			C465.2,249.9,465.2,249.9,465.2,249.8"/>
		<path class="st2" d="M401,279l-33.9,19.7c-3.9,2.3-7.1,7.8-7.2,12.4l-0.1,39.1c0,4.5,3.2,6.4,7.1,4.1l33.9-19.7
			c3.9-2.3,7.1-7.8,7.2-12.4l0.1-39.1C408.1,278.6,404.9,276.8,401,279"/>
		<path class="st1" d="M302.8,344.2C302.8,344.3,302.8,344.3,302.8,344.2l-0.1,39.2c0,4.5,3.2,6.4,7.1,4.1l33.9-19.7h0.1
			C321.1,380.9,302.8,370.3,302.8,344.2"/>
		<path class="st2" d="M458.3,179.9l-33.9,19.7c-3.9,2.3-7.1,7.8-7.2,12.4l-0.1,39.1c0,4.5,3.2,6.4,7.1,4.1l33.9-19.7
			c3.9-2.3,7.2-7.8,7.2-12.4l0.1-39.1C465.4,179.5,462.2,177.6,458.3,179.9"/>
		<path class="st1" d="M401.2,213.1l-33.9,19.7c-3.9,2.3-7.1,7.8-7.2,12.4l-0.1,39.1c0,4.5,3.2,6.4,7.1,4.1l33.9-19.7
			c3.9-2.3,7.1-7.8,7.2-12.4l0.1-39.1C408.3,212.7,405.1,210.8,401.2,213.1"/>
		<path class="st2" d="M344.1,246.3l-34,19.7c-3.9,2.3-7.1,7.8-7.2,12.4l-0.1,39.1c0,4.5,3.2,6.4,7.1,4.1l33.9-19.7
			c3.9-2.3,7.1-7.8,7.2-12.4l0.1-39.1C351.2,245.9,348,244,344.1,246.3"/>
		<path class="st2" d="M458.3,245.7l-34.4,20c-3.8,2.2-6.9,7.6-6.9,11.9v0.3l-0.1,39.1v0.3c0,4.4,3.1,6.2,6.9,3.9
			c0.1,0,0.1-0.1,0.2-0.1c22.7-13.3,41.1-45.2,41.3-71.4c0-0.1,0-0.1,0-0.2C465.2,245.3,462.1,243.5,458.3,245.7"/>
		<path class="st2" d="M344.1,312.1l-34.4,20c-3.8,2.2-6.9,7.6-6.9,11.9c0,0.1,0,0.1,0,0.2c0,26.1,18.3,36.6,41,23.6
			c0.1,0,0.1-0.1,0.2-0.1c3.8-2.2,6.9-7.6,6.9-11.9L351,316C351,311.6,347.9,309.9,344.1,312.1"/>
		<path class="st1" d="M339.8,230.3l-34.1-19.7c-4-2.3-10.4-2.3-14.3,0l-33.8,19.7c-3.9,2.3-3.9,6,0.1,8.3l34.1,19.7
			c4,2.3,10.4,2.3,14.3,0l33.8-19.7C343.8,236.3,343.7,232.6,339.8,230.3"/>
		<path class="st1" d="M282.4,205.4c-22.7,13.1-59.5,13.1-82.4,0h0.1l34.1,19.7c4,2.3,10.4,2.3,14.3,0L282.4,205.4L282.4,205.4"/>
		<path class="st1" d="M224.8,164l-34.1-19.7c-4-2.3-10.4-2.3-14.3,0L142.6,164c-3.9,2.3-3.9,6,0.1,8.3l34.1,19.7
			c4,2.3,10.4,2.3,14.3,0l33.8-19.7C228.8,170,228.8,166.3,224.8,164"/>
		<path class="st1" d="M396.8,197.2l-34.1-19.7h-0.1c22.7,13.2,22.9,34.6,0.4,47.8h0.1l33.8-19.7
			C400.8,203.2,400.7,199.5,396.8,197.2"/>
		<path class="st3" d="M339.3,164l-34.1-19.7c-4-2.3-10.4-2.3-14.3,0L257,164c-3.9,2.3-3.9,6,0.1,8.3l34.1,19.7
			c4,2.3,10.4,2.3,14.3,0l33.8-19.7C343.3,170,343.3,166.3,339.3,164"/>
		<path class="st1" d="M233.4,111.1L233.4,111.1l-33.9,19.7c-3.9,2.3-3.9,6,0.1,8.3l34.1,19.7h0.1
			C211.1,145.6,210.9,124.3,233.4,111.1"/>
		<path class="st1" d="M453.8,164.1l-34.1-19.7c-4-2.3-10.4-2.3-14.3,0l-33.8,19.7c-3.9,2.3-3.9,6,0.1,8.3l34.1,19.7
			c4,2.3,10.4,2.3,14.3,0l33.8-19.7C457.8,170.1,457.7,166.4,453.8,164.1"/>
		<path class="st1" d="M396.3,130.9l-34.1-19.7c-4-2.3-10.4-2.3-14.3,0L314,130.9h-0.1C336.6,117.8,373.4,117.8,396.3,130.9
			L396.3,130.9"/>
		<path class="st1" d="M338.8,97.7L304.7,78c-4-2.3-10.4-2.3-14.3,0l-33.8,19.7c-3.9,2.3-3.9,6,0.1,8.3l34.1,19.7
			c4,2.3,10.4,2.3,14.3,0l33.8-19.7C342.8,103.7,342.8,100,338.8,97.7"/>
		<path class="st3" d="M282.5,197.3l-34.6-20c-3.8-2.2-10-2.2-13.8,0l-0.3,0.1L200,197.1l-0.3,0.1c-3.8,2.2-3.8,5.8,0.1,8
			c0.1,0,0.1,0.1,0.2,0.1c22.9,13.1,59.7,13.1,82.4,0c0.1,0,0.1-0.1,0.2-0.1C286.4,203.1,286.4,199.5,282.5,197.3"/>
		<path class="st3" d="M362.4,177.4c-3.8-2.2-10-2.2-13.8,0l-0.3,0.1l-33.8,19.7l-0.3,0.1c-3.8,2.2-3.8,5.8,0.1,8l0.3,0.1l34.1,19.7
			l0.3,0.1c3.8,2.2,10,2.2,13.8,0c0.1,0,0.1-0.1,0.2-0.1c22.5-13.2,22.4-34.5-0.4-47.8C362.5,177.4,362.4,177.4,362.4,177.4"/>
		<path class="st3" d="M282.1,131l-34.6-20c-3.8-2.2-10-2.2-13.8,0c-0.1,0-0.1,0.1-0.2,0.1c-22.5,13.2-22.4,34.5,0.4,47.8
			c0.1,0,0.1,0.1,0.2,0.1c3.8,2.2,10,2.2,13.8,0l34.3-20C285.9,136.8,285.9,133.2,282.1,131"/>
		<path class="st3" d="M396.5,131.1c-0.1,0-0.1-0.1-0.2-0.1c-22.9-13.1-59.7-13.1-82.4,0c-0.1,0-0.1,0.1-0.2,0.1
			c-3.8,2.2-3.8,5.8,0.1,8l0.3,0.1l34.1,19.7l0.3,0.1c3.8,2.2,10,2.2,13.8,0l34.3-20C400.4,136.8,400.4,133.3,396.5,131.1"/>
		<path class="st1" d="M294,410.1c-0.2,26.1-18.7,36.6-41.5,23.6c0,0,0.1,0,0.1,0.1l34.1,19.7c4,2.3,7.2,0.5,7.2-4.1L294,410.1
			C294,410.2,294,410.2,294,410.1"/>
		<path class="st2" d="M229.4,364.7L195.2,345c-4-2.3-7.2-0.5-7.2,4.1l-0.1,39.1c0,4.6,3.2,10.1,7.2,12.4l34.1,19.7
			c4,2.3,7.2,0.5,7.2-4.1l0.1-39.1C236.5,372.5,233.3,367,229.4,364.7"/>
		<path class="st1" d="M130.5,315.8L130.5,315.8l-0.1,39.2c0,4.6,3.2,10.1,7.2,12.4l34.1,19.7h0.1C149,373.9,130.6,342,130.5,315.8"
			/>
		<path class="st2" d="M287,331.9l-34.1-19.7c-4-2.3-7.2-0.5-7.2,4.1l-0.1,39.1c0,4.5,3.2,10.1,7.2,12.4l34.1,19.7
			c4,2.3,7.2,0.5,7.2-4.1l0.1-39.1C294.2,339.8,291,334.2,287,331.9"/>
		<path class="st1" d="M229.6,298.8L195.4,279c-4-2.3-7.2-0.5-7.2,4.1l-0.1,39.1c0,4.5,3.2,10.1,7.2,12.4l34.1,19.7
			c4,2.3,7.2,0.5,7.2-4.1l0.1-39.1C236.7,306.6,233.5,301,229.6,298.8"/>
		<path class="st2" d="M172.1,266.4L138,246.7c-4-2.3-7.2-0.5-7.2,4.1l-0.1,39.1c0,4.5,3.2,10.1,7.2,12.4L172,322
			c4,2.3,7.2,0.5,7.2-4.1l0.1-39.1C179.2,274.2,176,268.7,172.1,266.4"/>
		<path class="st2" d="M287.2,266l-34.1-19.7c-4-2.3-7.2-0.5-7.2,4.1l-0.1,39.1c0,4.5,3.2,10.1,7.2,12.4l34.1,19.7
			c4,2.3,7.2,0.5,7.2-4.1l0.1-39.1C294.4,273.9,291.2,268.3,287.2,266"/>
		<path class="st1" d="M229.7,232.8l-34.1-19.7c-4-2.3-7.2-0.5-7.2,4.1l-0.1,39.1c0,4.5,3.2,10.1,7.2,12.4l34.1,19.7
			c4,2.3,7.2,0.5,7.2-4.1l0.1-39.1C236.9,240.7,233.7,235.1,229.7,232.8"/>
		<path class="st2" d="M172.3,200.5l-34.1-19.7c-4-2.3-7.2-0.5-7.2,4.1l-0.1,39.1c0,4.5,3.2,10.1,7.2,12.4l34.1,19.7
			c4,2.3,7.2,0.5,7.2-4.1l0.1-39.1C179.4,208.3,176.2,202.8,172.3,200.5"/>
		<path class="st2" d="M287.1,398l-34.6-20c-3.8-2.2-6.9-0.4-6.9,3.9v0.3l-0.1,39.1v0.3c0,4.4,3.1,9.7,6.9,11.9
			c0.1,0,0.1,0.1,0.2,0.1c22.8,13.1,41.4,2.5,41.5-23.6c0-0.1,0-0.1,0-0.2C294,405.6,290.9,400.2,287.1,398"/>
		<path class="st2" d="M172.1,331.6l-34.6-20c-3.8-2.2-6.9-0.4-7,3.9c0,0.1,0,0.1,0,0.2c0,26.2,18.4,58.1,41.3,71.4
			c0.1,0,0.1,0.1,0.2,0.1c3.8,2.2,6.9,0.4,7-3.9l0.1-39.7C179.1,339.2,176,333.8,172.1,331.6"/>
	</g>
</g>
</svg>
