<svg id="Capa_1" data-name="Capa 1" xmlns="http://www.w3.org/2000/svg" viewBox="0 0 400.3 400.3"><defs><style>.cls-1{fill:#fff;}</style></defs><title>Asociación Uruguaya de Speedcubing Negativo</title><path class="cls-1" d="M462.4,158.2,310,70.2a24.76,24.76,0,0,0-24.7,0l-151.4,88a24.57,24.57,0,0,0-12.3,21.2l-.5,175.1a24.77,24.77,0,0,0,12.3,21.4l152.4,88a24.4,24.4,0,0,0,12.3,3.3,24.77,24.77,0,0,0,12.4-3.3l151.4-88a24.57,24.57,0,0,0,12.3-21.2l.5-175.1A24.77,24.77,0,0,0,462.4,158.2ZM313.7,131.1c.1,0,.1-.1.2-.1,22.7-13.1,59.5-13.1,82.4,0,.1,0,.1.1.2.1,3.9,2.2,3.9,5.7.1,7.9l-34.3,20a15.25,15.25,0,0,1-13.8,0l-.3-.1-34.1-19.7-.3-.1C309.9,136.9,309.9,133.3,313.7,131.1Zm-80.2-20c.1,0,.1-.1.2-.1a15.25,15.25,0,0,1,13.8,0l34.6,20c3.8,2.2,3.8,5.8.1,8l-34.3,20a15.25,15.25,0,0,1-13.8,0c-.1,0-.1-.1-.2-.1C211.1,145.6,211,124.3,233.5,111.1ZM179,383.3c-.1,4.3-3.2,6.1-7,3.9-.1,0-.1-.1-.2-.1-22.9-13.3-41.3-45.2-41.3-71.4v-.2c.1-4.3,3.2-6.1,7-3.9l34.6,20a15.21,15.21,0,0,1,7,12Zm.2-65.4c0,4.6-3.2,6.4-7.2,4.1l-34.1-19.7a15.87,15.87,0,0,1-7.2-12.4l.1-39.1c0-4.6,3.2-6.4,7.2-4.1l34.1,19.7a16.26,16.26,0,0,1,7.2,12.4Zm.2-65.9c0,4.6-3.2,6.4-7.2,4.1l-34.1-19.7a15.87,15.87,0,0,1-7.2-12.4l.1-39.1c0-4.6,3.2-6.4,7.2-4.1l34.1,19.7a16.26,16.26,0,0,1,7.2,12.4Zm57,164.2c0,4.6-3.2,6.4-7.2,4.1l-34.1-19.7a15.72,15.72,0,0,1-7.2-12.4l.1-39.1c0-4.6,3.2-6.4,7.2-4.1l34.2,19.7a15.88,15.88,0,0,1,7.1,12.4ZM200,205.3c-.1,0-.1-.1-.2-.1-3.9-2.2-3.9-5.8-.1-8l.3-.1,33.8-19.7.3-.1a15.25,15.25,0,0,1,13.8,0l34.6,20c3.9,2.2,3.9,5.8.1,7.9-.1,0-.1.1-.2.1C259.7,218.4,222.9,218.4,200,205.3ZM294.1,410c-.1,26.1-18.7,36.7-41.5,23.6-.1,0-.1-.1-.2-.1a15.19,15.19,0,0,1-6.9-11.9v-.3l.1-39.1v-.3c0-4.3,3.1-6.1,6.9-3.9l34.6,20a15.72,15.72,0,0,1,7,11.8Zm0-26.6c0,4.6-3.2,6.4-7.2,4.1l-34.1-19.7a15.87,15.87,0,0,1-7.2-12.4l.1-39.1c0-4.6,3.2-6.4,7.2-4.1L287,331.9a15.87,15.87,0,0,1,7.2,12.4Zm.2-65.9c0,4.6-3.2,6.4-7.2,4.1L253,301.9a15.87,15.87,0,0,1-7.2-12.4l.1-39.1c0-4.6,3.2-6.4,7.2-4.1L287.2,266a15.87,15.87,0,0,1,7.2,12.4ZM291.2,192l-34.1-19.7c-4-2.3-4-6-.1-8.3l33.9-19.7c3.9-2.3,10.3-2.3,14.3,0L339.3,164c4,2.3,4,6,0,8.3L305.5,192C301.6,194.3,295.2,194.3,291.2,192Zm59.7,163.8a15.34,15.34,0,0,1-6.9,11.9c-.1,0-.1.1-.2.1-22.7,13-41,2.5-41-23.6V344a15.34,15.34,0,0,1,6.9-11.9l34.4-20c3.8-2.2,6.9-.5,6.9,3.9Zm.1-66.3a16.26,16.26,0,0,1-7.2,12.4l-33.9,19.7c-3.9,2.3-7.1.4-7.1-4.1l.1-39.1a16.26,16.26,0,0,1,7.2-12.4l34-19.7c3.9-2.3,7.1-.4,7,4.1Zm-2-64.3-.3-.1-34.1-19.7-.3-.1c-3.9-2.2-3.9-5.8-.1-8l.3-.1,33.8-19.7.3-.1a15.25,15.25,0,0,1,13.8,0,.31.31,0,0,0,.2-.1c22.8,13.3,22.9,34.6.4,47.8-.1,0-.1.1-.2.1A15.25,15.25,0,0,1,349,225.2Zm58.8,163a16.26,16.26,0,0,1-7.2,12.4l-33.9,19.7c-3.9,2.3-7.1.5-7.1-4.1l.1-39.1a16.26,16.26,0,0,1,7.2-12.4L400.8,345c3.9-2.3,7.1-.5,7.1,4.1Zm.2-66a16.26,16.26,0,0,1-7.2,12.4l-33.9,19.7c-3.9,2.3-7.1.4-7.1-4.1l.1-39.1a16.26,16.26,0,0,1,7.2-12.4L401,279c3.9-2.2,7.1-.4,7.1,4.1Zm57.3-72.5c-.2,26.2-18.6,58.1-41.3,71.4-.1,0-.1.1-.2.1-3.8,2.3-6.9.5-6.9-3.9V317l.1-39.1v-.3a15.34,15.34,0,0,1,6.9-11.9l34.4-20c3.8-2.2,6.9-.4,7,3.8Zm0-26.6c0,4.6-3.3,10.1-7.2,12.4l-33.9,19.7c-3.9,2.3-7.1.4-7.1-4.1l.1-39.1a16.26,16.26,0,0,1,7.2-12.4l33.9-19.7c3.9-2.3,7.1-.4,7.1,4.1Z" transform="translate(-121.1 -66.9)"/></svg>